<?xml version="1.0" standalone="no"?>
<!DOCTYPE svg PUBLIC "-//W3C//DTD SVG 20010904//EN"
 "http://www.w3.org/TR/2001/REC-SVG-20010904/DTD/svg10.dtd">
<svg version="1.0" xmlns="http://www.w3.org/2000/svg"
 width="512.000000pt" height="512.000000pt" viewBox="0 0 512.000000 512.000000"
 preserveAspectRatio="xMidYMid meet">
<metadata>
Created by potrace 1.14, written by Peter Selinger 2001-2017
</metadata>
<g transform="translate(0.000000,512.000000) scale(0.100000,-0.100000)"
fill="#000000" stroke="none">
<path d="M3771 4598 c-1 -9 -6 -20 -13 -24 -6 -4 -8 -3 -5 3 4 6 -16 9 -51 8
-31 0 -56 -5 -55 -11 1 -5 -8 -10 -20 -11 -12 0 -16 1 -9 4 6 3 10 9 6 14 -3
5 -14 -1 -25 -13 -12 -13 -18 -18 -15 -11 7 13 -19 12 -31 -2 -4 -4 -2 -5 6 0
10 5 12 4 7 -3 -5 -9 -13 -9 -28 -1 -15 8 -19 8 -14 0 4 -6 1 -12 -6 -12 -7
-1 -17 -2 -23 -4 -5 -1 -25 -3 -44 -3 -22 -1 -32 -6 -28 -15 3 -9 -6 -11 -35
-9 -31 3 -44 -1 -61 -19 -13 -14 -22 -18 -25 -11 -2 7 -8 10 -12 7 -5 -3 -6
-13 -3 -23 4 -13 2 -13 -11 3 -9 11 -16 16 -15 10 3 -22 -2 -29 -11 -15 -6 10
-10 11 -10 3 0 -7 -12 -13 -26 -13 -14 0 -23 -4 -19 -10 3 -5 -3 -11 -14 -11
-40 -3 -46 -5 -43 -18 2 -9 -4 -12 -18 -8 -13 3 -20 0 -20 -9 0 -8 6 -11 15
-8 8 4 15 2 15 -3 0 -6 -16 -9 -36 -8 -24 2 -34 -1 -31 -9 4 -11 -7 -15 -50
-18 -9 -1 -10 -5 -2 -14 7 -8 6 -14 -2 -20 -7 -4 -9 -3 -6 3 4 6 0 14 -9 17
-8 3 -12 2 -9 -3 8 -14 -35 -41 -53 -34 -10 4 -13 2 -8 -5 4 -7 2 -20 -4 -29
-11 -17 -11 -17 -6 0 3 9 1 17 -4 17 -6 0 -10 -6 -10 -14 0 -7 -13 -16 -30
-19 -23 -5 -28 -10 -23 -23 5 -13 2 -16 -10 -11 -12 4 -17 1 -17 -11 0 -11 -3
-13 -8 -5 -5 8 -12 8 -27 -3 -11 -8 -20 -18 -20 -22 0 -4 -4 -6 -9 -4 -5 2 -3
-4 4 -13 11 -13 10 -14 -5 -9 -11 5 -16 3 -12 -2 3 -6 2 -16 -4 -24 -7 -12 -9
-9 -10 10 -1 23 -2 23 -15 -8 -10 -23 -20 -32 -29 -28 -9 3 -15 -1 -15 -10 0
-11 -6 -14 -16 -10 -8 3 -12 2 -9 -4 3 -6 1 -10 -6 -10 -9 0 -9 -3 0 -14 10
-12 8 -13 -8 -9 -16 4 -21 1 -21 -13 0 -16 -2 -17 -10 -4 -8 13 -10 13 -10 -2
0 -9 -5 -20 -12 -24 -7 -5 -8 -3 -3 6 5 9 4 11 -3 6 -7 -4 -12 -16 -12 -27 0
-10 -4 -19 -10 -19 -5 0 -7 8 -3 18 3 9 -5 4 -18 -13 -13 -16 -24 -33 -24 -36
0 -4 -4 -11 -9 -16 -5 -5 -6 -3 -2 5 8 14 -10 17 -19 2 -3 -5 -11 -10 -17 -10
-7 0 -7 4 0 13 8 10 6 13 -8 14 -11 1 -22 -2 -25 -8 -4 -5 -11 -9 -16 -9 -6 0
-7 4 -4 10 3 6 -1 7 -10 4 -14 -6 -14 -8 2 -20 17 -12 16 -13 -4 -7 -13 3 -23
9 -23 14 0 5 -5 9 -11 9 -5 0 -7 -4 -4 -10 3 -5 -1 -10 -10 -10 -10 0 -14 5
-10 13 4 6 1 5 -7 -3 -8 -9 -30 -15 -54 -15 -26 1 -41 -4 -41 -12 0 -6 5 -9
11 -5 14 8 63 15 55 8 -3 -3 -16 -7 -30 -9 -17 -3 -24 -10 -23 -25 1 -12 -3
-19 -7 -16 -5 3 -7 9 -4 14 8 13 -19 30 -34 21 -7 -5 -13 -12 -14 -17 -1 -5
-14 -8 -29 -8 -15 1 -25 -3 -22 -7 3 -5 10 -6 16 -3 7 5 8 2 4 -5 -5 -7 -14
-10 -21 -7 -8 3 -19 -2 -25 -10 -7 -8 -19 -14 -26 -14 -8 0 -14 -6 -14 -13 0
-8 -7 -14 -15 -15 -8 -1 -22 -3 -30 -4 -8 -1 -12 -5 -9 -10 3 -5 9 -6 14 -3 5
3 12 1 15 -5 4 -6 3 -10 -2 -9 -24 4 -53 -2 -48 -11 3 -5 -3 -10 -14 -10 -12
0 -20 -3 -20 -7 3 -20 -2 -34 -10 -29 -5 3 -12 -1 -15 -10 -3 -8 -11 -12 -17
-8 -8 5 -9 3 -4 -6 6 -10 4 -12 -9 -7 -9 4 -15 3 -11 -2 3 -5 2 -11 -2 -14 -5
-2 -3 -3 3 -1 6 1 11 -3 11 -10 0 -7 -10 -12 -21 -11 -22 2 -51 -29 -42 -44 8
-12 -26 -39 -46 -36 -12 2 -15 -4 -13 -21 2 -21 0 -22 -14 -12 -13 11 -13 9 2
-14 12 -19 14 -29 5 -34 -7 -4 -8 -3 -4 4 3 6 -3 16 -14 22 -20 11 -21 10 -10
-10 10 -20 10 -21 -8 -16 -12 4 -24 2 -28 -5 -4 -8 -3 -9 4 -5 7 4 12 2 12 -3
0 -16 -16 -13 -30 4 -7 8 -21 15 -30 15 -10 0 -21 6 -23 13 -4 9 -6 9 -6 -1
-1 -10 -5 -9 -17 3 -10 9 -25 14 -35 12 -10 -3 -17 -2 -16 2 1 3 -2 7 -7 8 -5
1 -13 7 -17 15 -7 10 -9 10 -9 0 0 -9 -5 -10 -19 -3 -10 6 -21 7 -25 4 -3 -3
-6 -1 -6 5 0 6 -7 9 -17 5 -10 -4 -14 -2 -10 4 4 6 0 14 -8 17 -8 3 -14 11
-13 18 2 7 -3 12 -9 11 -7 -2 -16 9 -19 23 -5 19 -9 22 -15 12 -6 -9 -9 -7 -9
10 0 12 -5 22 -11 22 -5 0 -7 -5 -3 -12 4 -6 3 -8 -4 -5 -12 8 -10 32 3 44 4
4 5 1 0 -7 -6 -12 -5 -13 5 -3 12 11 11 16 -6 29 -10 8 -14 13 -7 10 17 -9 22
4 25 62 2 27 6 48 11 45 4 -2 4 -9 1 -15 -4 -6 -3 -9 2 -5 5 3 9 26 9 51 -1
28 4 47 12 50 7 3 13 10 13 16 0 6 -6 8 -12 5 -7 -4 -5 0 4 8 13 10 15 16 6
25 -9 9 -9 12 0 12 6 0 9 7 6 15 -4 9 0 15 7 15 11 0 11 3 -1 10 -9 6 -11 10
-3 10 7 0 10 7 6 17 -4 10 -2 14 4 10 11 -7 11 22 -1 41 -4 6 -3 12 1 12 5 0
9 27 9 59 0 33 -3 58 -6 56 -4 -2 -7 2 -7 10 0 8 3 15 7 15 9 0 4 45 -6 62 -5
7 -9 21 -9 31 0 10 -7 22 -15 27 -8 5 -16 14 -16 20 -1 5 -2 15 -3 21 0 5 -5
7 -11 4 -5 -3 -10 1 -10 10 0 8 -11 20 -24 25 -13 5 -27 14 -31 20 -3 5 -11 8
-16 5 -5 -4 -9 -1 -9 5 0 6 -4 9 -9 6 -5 -3 -12 1 -15 10 -3 8 -10 12 -16 9
-6 -3 -13 1 -16 10 -5 13 -9 13 -22 3 -12 -10 -14 -10 -8 0 5 8 -1 12 -19 12
-14 0 -24 4 -21 9 3 5 -1 11 -9 15 -8 3 -15 0 -15 -7 0 -8 -3 -9 -8 -1 -4 6
-17 10 -30 9 -13 -1 -25 2 -28 7 -3 4 0 8 7 8 7 0 9 3 6 6 -4 4 -14 1 -24 -7
-9 -8 -14 -9 -10 -3 4 7 -2 12 -16 13 -71 5 -83 7 -96 15 -9 6 -12 5 -8 -1 4
-6 -17 -10 -58 -10 -35 0 -62 3 -60 7 2 4 -2 7 -10 7 -8 0 -12 -4 -9 -9 3 -4
-2 -9 -10 -9 -36 -3 -41 -5 -38 -17 1 -7 3 -24 4 -37 1 -13 6 -21 11 -18 5 3
13 -1 18 -8 10 -18 29 -19 52 -3 10 6 27 10 38 7 11 -3 19 0 19 6 0 7 -5 9
-12 5 -6 -4 -8 -3 -5 4 8 11 25 11 44 -1 7 -5 13 -4 13 1 0 5 13 9 30 10 16 0
30 -4 30 -9 0 -5 5 -9 11 -9 5 0 7 4 4 10 -7 12 51 7 63 -5 4 -5 0 -5 -8 0 -9
5 -12 4 -7 -1 5 -5 14 -9 20 -10 7 0 20 -2 30 -2 12 -1 15 -6 11 -14 -5 -8 -2
-8 10 1 13 11 16 11 14 1 -2 -7 7 -13 21 -15 14 -1 27 -7 29 -13 2 -7 17 -12
33 -12 18 0 28 -4 24 -10 -6 -9 8 -14 20 -7 2 1 11 -7 20 -18 l15 -20 -6 20
c-6 18 -4 17 10 -3 10 -12 22 -20 27 -17 5 3 6 0 3 -8 -3 -9 3 -16 15 -20 18
-4 21 -13 21 -54 0 -27 6 -55 13 -62 7 -8 7 -11 1 -8 -8 5 -11 -4 -10 -23 0
-18 5 -29 12 -26 7 3 10 -3 6 -16 -3 -13 -7 -16 -12 -8 -4 7 -8 0 -8 -16 0
-16 3 -33 6 -39 10 -16 11 -35 1 -29 -8 5 -13 -43 -10 -93 1 -12 -4 -25 -11
-30 -7 -4 -14 -21 -14 -38 -3 -45 -3 -47 -13 -40 -6 3 -10 -3 -10 -12 -1 -44
-4 -59 -14 -72 -11 -13 -15 -27 -19 -63 -1 -9 -6 -14 -12 -11 -5 4 -7 -1 -3
-9 3 -9 0 -21 -6 -27 -6 -6 -8 -11 -3 -11 4 0 0 -7 -9 -16 -13 -14 -19 -14
-28 -4 -9 10 -9 11 1 6 12 -7 16 3 13 36 -1 9 7 26 18 37 16 16 18 26 11 50
-8 30 -6 35 14 32 5 -1 3 6 -5 15 -9 12 -9 15 -1 10 12 -7 13 -4 15 107 0 23
6 37 14 37 7 0 13 5 13 11 0 5 -5 7 -12 3 -8 -5 -9 -2 -4 12 8 21 9 24 7 42 0
8 -6 10 -13 6 -10 -6 -10 -4 0 7 14 15 16 49 3 49 -4 0 -8 8 -8 18 0 60 -4 77
-13 62 -8 -13 -10 -12 -11 5 -1 11 -1 23 0 28 0 4 -6 8 -14 8 -29 3 -33 4 -42
13 -5 5 -3 6 4 2 7 -4 13 -3 13 3 0 5 -10 11 -23 13 -12 2 -21 9 -20 15 1 6
-10 10 -27 9 -19 -1 -30 3 -30 11 0 7 -3 12 -7 12 -27 -4 -63 3 -58 11 4 7 -3
7 -20 0 -17 -7 -24 -7 -20 0 8 13 10 13 -118 15 -84 2 -110 -1 -114 -11 -4
-11 -8 -11 -20 2 -9 8 -18 12 -21 9 -4 -3 0 -10 8 -15 11 -7 10 -9 -7 -7 -12
0 -19 6 -15 12 4 7 1 6 -9 -1 -16 -12 -29 -12 -48 0 -10 6 -12 5 -7 -2 5 -8 0
-12 -12 -12 -16 0 -21 -8 -24 -38 -3 -39 -3 -39 35 -40 26 -1 36 2 31 10 -4 6
-3 8 4 4 6 -3 14 -1 17 4 4 6 17 10 28 9 35 -2 43 1 27 11 -16 10 -11 11 85
14 22 0 46 5 53 9 6 5 12 4 12 -2 0 -5 8 -8 18 -6 9 1 28 -4 41 -12 13 -8 20
-10 17 -4 -4 6 0 11 9 11 9 0 14 -4 10 -9 -3 -6 5 -10 17 -10 13 0 33 -1 45
-1 13 0 23 -5 23 -11 0 -5 -4 -7 -10 -4 -5 3 -10 1 -10 -5 0 -6 8 -9 18 -6 9
3 30 -1 45 -9 19 -10 26 -10 22 -2 -4 7 1 3 10 -8 9 -11 19 -20 23 -20 4 0 6
-4 4 -9 -2 -5 3 -4 11 2 14 12 14 14 21 -160 2 -27 6 -51 9 -55 4 -3 3 -11 -3
-17 -5 -7 -10 -44 -12 -83 -2 -47 -7 -69 -14 -66 -7 2 -11 -7 -10 -24 0 -17
-4 -27 -12 -25 -16 3 -16 -15 1 -21 9 -4 9 -6 0 -6 -7 -1 -13 -10 -13 -22 0
-11 -7 -28 -16 -36 -9 -9 -14 -26 -11 -40 2 -12 0 -23 -5 -23 -6 0 -7 -7 -4
-16 4 -11 2 -15 -8 -11 -10 4 -14 0 -11 -14 2 -10 -1 -19 -6 -19 -16 0 -39
-27 -31 -35 4 -5 2 -5 -5 -1 -6 3 -14 2 -18 -4 -4 -6 -11 -8 -16 -5 -5 3 -6 0
-4 -7 4 -9 -4 -14 -22 -16 -14 -1 -34 -9 -43 -17 -9 -8 -23 -15 -31 -15 -11 0
-12 -2 -1 -9 10 -6 8 -10 -10 -16 -12 -4 -27 -6 -33 -5 -5 1 -7 -1 -3 -5 8 -9
-16 -35 -31 -35 -6 0 -11 -7 -11 -15 0 -14 -13 -20 -34 -16 -5 1 -3 -6 5 -15
8 -11 9 -15 2 -11 -11 7 -25 -4 -61 -47 -7 -9 -10 -16 -7 -16 3 0 -6 -11 -21
-25 -15 -14 -23 -25 -18 -25 5 0 1 -5 -8 -11 -9 -5 -15 -16 -12 -23 3 -8 0
-17 -7 -22 -8 -5 -10 -3 -4 6 5 9 4 11 -3 6 -7 -4 -12 -14 -12 -22 0 -8 -7
-26 -16 -39 -9 -14 -12 -25 -8 -25 5 0 2 -6 -7 -13 -17 -13 -19 -17 -19 -43 0
-9 -5 -12 -12 -8 -10 6 -10 4 0 -8 10 -13 10 -18 1 -24 -8 -5 -9 -3 -4 6 5 8
4 11 -3 6 -6 -4 -9 -13 -6 -20 3 -8 1 -17 -5 -21 -8 -4 -8 -12 0 -27 10 -18 9
-20 -5 -15 -13 5 -16 -1 -16 -39 0 -33 -3 -43 -12 -38 -10 6 -10 4 0 -7 18
-20 15 -33 -5 -18 -17 13 -17 12 -3 -5 16 -21 23 -49 9 -40 -5 3 -9 -2 -9 -11
0 -9 4 -14 8 -11 10 6 9 -40 -1 -50 -3 -4 -4 3 -2 15 2 12 0 19 -4 17 -4 -3
-7 -18 -5 -33 1 -15 3 -35 3 -43 1 -11 3 -12 9 -3 5 8 8 -1 9 -22 1 -20 -4
-35 -10 -35 -9 0 -9 -2 0 -8 6 -4 13 -21 15 -37 2 -18 8 -29 16 -27 8 1 11 -2
7 -8 -3 -6 -11 -7 -17 -4 -5 4 -2 -5 7 -20 10 -14 14 -26 10 -26 -4 0 -1 -8 6
-17 9 -11 10 -14 2 -9 -9 5 -11 2 -7 -8 3 -9 11 -13 17 -9 6 4 8 0 4 -10 -3
-9 -2 -19 3 -22 5 -3 7 -15 5 -26 -3 -16 -1 -18 8 -10 10 7 13 4 14 -12 1 -12
7 -23 13 -25 5 -2 10 -15 10 -28 0 -15 6 -24 15 -24 8 0 15 -7 15 -15 0 -8 7
-15 15 -15 8 0 15 -7 15 -15 0 -8 5 -15 10 -15 6 0 10 -7 10 -16 0 -10 5 -14
16 -10 8 3 12 2 9 -4 -3 -5 4 -14 15 -20 11 -6 17 -16 14 -22 -4 -7 -3 -8 5
-4 6 4 14 0 17 -8 3 -9 10 -14 14 -11 5 3 11 1 15 -5 4 -6 12 -7 18 -3 8 5 8
2 -1 -9 -10 -13 -9 -15 13 -13 16 2 25 -2 25 -11 0 -14 8 -17 42 -17 9 0 16
-5 15 -11 -1 -6 11 -13 28 -14 16 -2 33 -8 36 -13 3 -6 22 -11 42 -12 37 -2
48 -11 25 -20 -7 -3 -3 -4 9 -4 12 1 19 6 15 12 -3 5 1 4 10 -3 10 -8 45 -13
91 -13 84 0 98 -8 99 -59 1 -19 -6 -36 -18 -45 -10 -8 -16 -15 -12 -15 5 0 -1
-9 -12 -20 -12 -12 -18 -26 -14 -32 4 -7 3 -8 -4 -4 -7 4 -12 1 -12 -9 0 -8
-11 -20 -24 -25 -13 -5 -27 -14 -31 -20 -3 -5 -11 -8 -16 -5 -5 4 -9 -1 -9 -9
0 -9 -7 -16 -16 -16 -8 0 -12 -5 -9 -10 3 -6 1 -10 -5 -10 -7 0 -10 -7 -6 -15
3 -9 0 -15 -10 -15 -10 0 -14 -6 -11 -14 3 -7 0 -19 -6 -26 -9 -10 -9 -11 0
-6 9 5 12 -2 10 -26 -2 -20 -8 -32 -16 -30 -7 1 -10 -1 -7 -6 3 -5 -4 -16 -15
-26 -13 -10 -19 -25 -16 -36 3 -11 0 -21 -7 -23 -6 -2 -11 -18 -12 -35 0 -17
2 -29 6 -27 3 2 6 -5 6 -15 0 -10 -4 -16 -8 -14 -4 3 -8 1 -8 -4 0 -6 7 -13
16 -16 9 -4 14 -13 10 -21 -3 -9 0 -15 9 -15 10 0 15 -11 15 -35 0 -19 -5 -35
-11 -35 -8 0 -7 -6 2 -17 12 -14 12 -16 0 -8 -11 6 -13 4 -8 -8 3 -9 1 -18 -6
-21 -7 -2 -4 -5 6 -5 9 -1 17 -5 17 -11 0 -5 -8 -7 -17 -4 -10 3 -8 -1 5 -8
12 -8 21 -16 20 -19 -2 -2 2 1 8 8 8 10 13 10 23 0 10 -9 11 -8 5 7 -5 12 -4
17 3 13 6 -4 8 3 5 18 -2 14 -9 25 -15 25 -6 0 -7 3 -4 7 4 3 2 12 -4 19 -12
15 21 54 47 54 8 0 13 4 10 9 -3 5 1 12 10 15 9 4 14 9 11 13 -4 3 0 11 8 17
9 7 15 33 16 77 2 58 5 69 30 91 15 15 29 25 31 23 2 -2 11 16 19 40 9 25 13
43 10 41 -4 -3 -7 17 -6 43 0 35 3 47 13 43 7 -2 12 2 10 9 -2 9 4 13 15 11 9
-2 20 3 23 11 3 8 16 15 30 15 18 0 24 -5 20 -15 -3 -8 -1 -11 4 -8 6 3 10 -1
10 -10 0 -9 5 -13 10 -10 9 6 14 -8 11 -27 0 -5 6 -8 14 -8 8 0 15 -4 15 -10
0 -5 7 -10 16 -10 8 0 13 -4 10 -8 -2 -4 -1 -14 5 -22 7 -13 9 -13 9 0 1 9 5
6 10 -7 5 -13 17 -23 25 -23 9 0 13 -4 10 -10 -4 -6 6 -10 22 -10 22 0 25 -2
13 -10 -13 -9 -13 -10 0 -11 8 -1 20 -1 27 0 6 1 15 -4 19 -10 5 -8 3 -9 -6
-4 -9 5 -11 4 -6 -4 6 -9 11 -9 24 1 12 10 14 10 8 1 -7 -13 10 -18 42 -14 8
1 21 -4 29 -11 9 -7 30 -13 46 -14 22 0 32 -6 38 -22 7 -18 3 -24 -20 -37 -16
-8 -31 -11 -35 -8 -4 4 -17 8 -29 10 -16 2 -18 0 -8 -6 17 -11 -1 -22 -19 -11
-8 5 -22 5 -32 -1 -10 -5 -18 -6 -18 -2 0 4 -7 -2 -15 -13 -13 -16 -16 -17
-25 -4 -8 13 -10 13 -10 -2 0 -10 -6 -17 -12 -15 -7 1 -12 -4 -11 -10 2 -7 -6
-13 -17 -13 -12 0 -17 -5 -14 -14 3 -8 0 -17 -7 -22 -8 -4 -10 -3 -5 4 4 7 2
12 -3 12 -6 0 -11 -11 -11 -24 0 -13 -7 -27 -16 -30 -8 -3 -13 -9 -10 -14 2
-4 -4 -9 -15 -9 -10 -1 -19 4 -19 10 0 9 -2 9 -8 0 -5 -7 -20 -14 -34 -15 -15
-1 -24 -7 -21 -14 3 -7 -5 -14 -19 -16 -13 -2 -27 -13 -33 -25 -5 -13 -16 -23
-24 -23 -8 0 -12 -3 -8 -6 3 -4 0 -19 -8 -35 -16 -30 -21 -85 -6 -61 7 11 9
11 14 -2 7 -18 -24 -56 -46 -56 -8 0 -7 -4 3 -10 12 -8 10 -10 -10 -11 -14 0
-19 -3 -12 -6 6 -2 12 -15 12 -28 0 -19 4 -22 22 -17 14 3 19 2 14 -6 -4 -7
-2 -12 3 -12 6 0 11 5 11 11 0 5 4 7 10 4 9 -5 14 10 22 58 2 10 8 18 13 19 6
1 16 8 23 17 10 14 11 14 7 1 -4 -12 1 -15 22 -14 16 1 34 3 41 3 7 1 11 5 8
9 -2 4 5 9 16 9 12 1 24 7 28 14 6 8 9 8 13 -2 4 -10 6 -9 6 4 1 9 8 17 17 17
8 0 13 3 11 8 -3 4 6 21 20 37 14 17 22 24 18 16 -6 -9 -4 -12 3 -7 7 4 12 13
12 21 0 7 7 16 16 19 8 3 12 2 9 -3 -3 -5 -1 -12 5 -16 5 -3 10 -2 10 3 0 16
31 23 46 11 11 -9 14 -9 14 0 0 7 4 10 9 6 5 -3 12 -1 16 4 3 6 12 8 21 4 9
-3 14 0 12 8 -2 7 4 14 12 14 8 0 14 7 12 15 -3 11 0 11 14 -1 12 -9 15 -10
10 -1 -8 14 18 45 29 34 5 -4 5 1 2 10 -7 20 9 35 16 16 3 -7 6 -3 6 8 1 12 8
25 17 28 8 3 13 10 10 15 -3 5 1 11 9 15 8 3 15 13 15 22 0 10 3 15 6 11 7 -7
33 15 28 24 -2 4 8 10 21 13 14 4 24 10 21 15 -3 4 1 8 9 8 8 0 12 -4 10 -8
-3 -3 3 -13 12 -20 10 -8 14 -9 10 -2 -4 6 -3 14 3 18 5 3 10 -1 10 -10 0 -9
13 -21 30 -26 16 -6 27 -15 24 -20 -3 -5 2 -9 10 -9 9 0 16 -6 16 -14 0 -9 7
-13 20 -11 12 2 24 -4 30 -16 6 -11 15 -17 21 -14 5 4 9 -1 9 -9 0 -10 6 -13
15 -9 9 3 21 -2 28 -11 7 -8 27 -17 45 -18 19 -1 36 -7 39 -12 3 -5 1 -6 -5
-2 -6 3 -14 2 -17 -4 -4 -6 -3 -10 2 -9 4 1 24 1 43 0 28 -1 32 -4 20 -12 -12
-9 -11 -10 8 -6 12 3 22 1 22 -4 0 -4 7 -6 15 -3 8 4 15 1 15 -5 0 -6 5 -11
11 -11 5 0 7 6 4 12 -4 7 0 5 8 -4 8 -10 28 -18 45 -18 17 0 34 -5 37 -10 5
-8 11 -7 21 1 12 10 13 8 8 -7 -4 -10 -4 -16 1 -12 4 4 15 2 23 -5 9 -6 13 -7
10 -2 -3 6 5 10 18 10 16 0 23 -4 19 -14 -4 -10 2 -12 26 -9 21 3 33 0 36 -9
5 -12 7 -12 14 -1 6 8 9 1 9 -22 0 -26 3 -31 10 -20 5 8 10 10 10 5 0 -6 -6
-17 -12 -24 -10 -11 -10 -13 0 -7 6 4 12 3 12 -1 0 -5 -6 -15 -12 -22 -11 -10
-9 -11 7 -5 17 7 18 6 7 -8 -9 -11 -10 -18 -2 -23 6 -3 8 -11 5 -16 -4 -5 -2
-9 4 -9 9 0 24 -37 26 -62 0 -3 4 -10 9 -15 5 -5 6 -2 1 6 -5 9 -4 12 3 7 7
-4 12 -13 12 -20 0 -7 11 -18 25 -24 14 -6 25 -16 25 -22 0 -6 10 -9 23 -6 17
3 23 -1 24 -17 1 -11 8 -24 15 -28 7 -5 14 -17 14 -29 4 -54 4 -55 13 -41 10
16 20 3 16 -22 -2 -9 1 -15 5 -12 5 3 13 -2 18 -10 4 -9 18 -17 29 -18 11 0
19 -6 16 -13 -2 -6 3 -14 12 -18 11 -4 14 -2 10 7 -4 6 0 4 8 -5 15 -19 93
-26 82 -8 -3 6 -1 10 4 10 6 0 11 -4 11 -10 0 -5 5 -10 11 -10 5 0 7 4 4 10
-3 5 -1 10 4 10 6 0 11 -7 11 -16 0 -8 4 -13 9 -10 5 3 11 -1 15 -9 3 -8 12
-15 21 -15 8 0 15 -6 15 -14 0 -7 8 -20 18 -27 15 -13 16 -12 3 4 -17 21 -8
22 13 1 15 -14 16 -14 16 0 0 9 5 15 11 13 6 -1 13 10 16 26 3 20 0 27 -13 27
-10 0 -26 8 -37 17 -11 10 -17 12 -13 6 5 -9 2 -11 -8 -7 -9 3 -16 11 -16 18
0 6 -5 4 -10 -4 -8 -12 -10 -10 -10 8 0 13 -4 20 -10 17 -6 -3 -10 -1 -10 4 0
6 5 11 10 11 6 0 10 7 10 15 0 8 -4 15 -10 15 -5 0 -10 5 -10 11 0 5 5 7 10 4
6 -3 10 -2 10 4 0 5 -5 11 -10 13 -6 2 -12 13 -13 26 -1 14 -6 21 -14 18 -8
-3 -13 2 -13 15 0 11 -4 18 -9 14 -5 -3 -12 4 -16 15 -4 11 -11 18 -16 15 -5
-4 -9 1 -9 9 0 9 -3 15 -7 15 -25 -4 -43 3 -43 16 0 8 -3 14 -7 14 -27 -4 -32
4 -29 50 1 28 -1 48 -6 45 -4 -3 -11 8 -14 25 -4 17 -10 28 -15 25 -5 -3 -9 3
-9 13 0 12 7 19 20 19 12 0 19 -5 16 -13 -5 -13 19 -7 41 10 9 6 15 4 19 -7 5
-12 20 -16 66 -16 45 0 57 -3 52 -12 -6 -10 -4 -10 8 0 16 13 52 12 65 -3 5
-4 2 -5 -6 0 -9 5 -12 4 -8 -2 3 -5 29 -9 57 -7 33 2 50 -2 50 -9 0 -7 4 -6
10 3 8 12 10 12 10 1 0 -11 3 -11 15 -1 12 10 16 9 20 -2 3 -7 19 -15 36 -16
21 -2 28 1 23 9 -5 8 -3 9 7 3 8 -5 17 -9 22 -10 4 -1 8 -2 10 -4 1 -1 16 -3
33 -3 17 -1 40 -9 50 -17 18 -14 18 -14 5 3 -12 15 -11 17 5 14 11 -1 26 -7
34 -12 8 -5 49 -10 90 -10 74 -1 75 -1 78 -28 2 -19 -1 -27 -11 -27 -10 0 -14
-8 -13 -25 2 -13 0 -22 -4 -20 -10 6 -28 -36 -24 -58 2 -14 -2 -17 -14 -13
-16 6 -16 5 0 -7 15 -12 15 -14 0 -25 -16 -11 -16 -11 1 -6 14 5 17 0 17 -25
0 -18 -5 -31 -12 -31 -9 0 -8 -4 2 -10 13 -9 8 -14 -12 -11 -4 0 -6 -8 -5 -19
1 -11 4 -20 8 -20 4 0 10 -7 13 -16 5 -13 4 -14 -7 -6 -10 9 -14 8 -14 -3 0
-8 4 -15 8 -15 5 0 5 -7 2 -17 -4 -11 -3 -14 5 -9 7 4 12 1 12 -8 0 -9 5 -16
10 -16 6 0 10 -7 10 -15 0 -8 9 -15 21 -15 11 0 18 -4 15 -8 -3 -5 1 -9 8 -9
14 0 15 32 1 44 -4 5 -5 1 0 -7 6 -12 5 -12 -4 -4 -11 11 -15 75 -9 156 2 21
5 25 15 16 10 -8 13 -6 13 6 0 10 7 17 18 15 32 -3 43 1 36 13 -4 7 -3 8 5 4
15 -10 53 32 44 48 -4 6 0 6 9 -2 13 -10 15 -9 13 13 -2 18 2 25 13 26 11 0
12 2 5 6 -7 2 -13 14 -13 24 0 13 4 18 12 13 7 -5 9 -1 6 12 -4 14 0 20 13 21
12 1 16 -3 12 -13 -4 -10 0 -12 11 -8 11 4 16 1 16 -10 0 -9 8 -16 21 -16 11
0 18 -4 15 -9 -3 -4 6 -13 19 -19 14 -7 25 -16 25 -22 0 -5 4 -10 10 -10 16 0
50 -33 50 -50 0 -13 1 -13 10 0 8 12 10 11 10 -7 0 -16 4 -21 15 -17 10 4 15
0 15 -12 0 -15 2 -16 9 -5 7 11 10 9 16 -8 3 -11 13 -21 22 -21 9 0 13 -6 10
-14 -4 -9 0 -13 11 -12 9 2 23 -5 30 -15 7 -11 20 -19 28 -19 8 0 12 -4 9 -10
-3 -5 1 -10 10 -10 10 0 13 -5 9 -12 -5 -8 -2 -9 10 -5 10 4 15 3 11 -3 -3 -6
-1 -10 5 -10 6 0 9 -4 6 -9 -3 -4 5 -8 17 -7 28 2 50 -16 33 -27 -6 -4 0 -6
13 -4 23 4 40 37 19 37 -6 0 -4 7 3 17 10 11 10 14 2 9 -9 -5 -13 0 -14 13 -1
12 -3 26 -4 31 -1 6 -3 22 -4 36 -1 17 -5 23 -13 18 -8 -5 -7 0 2 11 9 11 10
16 3 11 -10 -5 -13 7 -13 53 0 33 -5 61 -11 63 -6 2 -11 25 -12 51 0 26 -5 47
-10 47 -4 0 -5 5 -2 10 3 6 1 10 -4 10 -6 0 -11 5 -11 11 0 5 3 8 8 6 4 -3 8
6 9 20 0 16 -2 21 -7 14 -11 -19 -16 4 -15 71 0 32 -2 52 -6 46 -4 -7 -5 -17
-2 -23 4 -5 2 -6 -3 -2 -12 11 -11 40 1 49 6 5 5 8 -2 8 -9 0 -13 17 -13 49 0
28 -4 53 -10 56 -5 3 -10 21 -10 39 0 17 -6 38 -12 45 -8 9 -9 12 -1 7 13 -7
12 19 -2 31 -4 5 -5 1 0 -7 5 -9 5 -12 -1 -7 -8 8 -13 40 -15 110 -1 24 -3 26
-17 15 -14 -11 -14 -9 1 15 17 26 17 27 0 27 -15 0 -16 2 -3 10 12 8 12 10 1
10 -11 0 -11 3 0 17 9 11 10 14 2 9 -9 -5 -11 -2 -7 8 3 9 9 14 13 12 9 -6 8
71 -1 80 -5 4 -8 12 -8 18 0 6 4 5 9 -3 6 -9 9 24 10 85 2 112 3 123 15 143 6
10 5 12 -3 7 -14 -9 -11 30 3 53 6 9 5 12 -2 7 -7 -4 -11 19 -12 71 -2 120 -5
147 -15 163 -5 8 -11 35 -13 60 -1 25 -7 47 -12 48 -6 2 -10 19 -10 37 0 19
-5 37 -11 41 -6 3 -9 17 -6 30 2 13 0 21 -4 18 -9 -5 -13 17 -10 45 2 8 -2 10
-10 5 -9 -5 -10 -2 -6 9 3 10 2 17 -3 17 -5 0 -7 9 -5 20 2 11 -1 19 -8 17 -6
-1 -14 14 -17 33 -3 21 -11 34 -18 32 -7 -1 -12 3 -11 10 3 25 -1 39 -9 34 -9
-5 -12 8 -14 54 0 14 -3 19 -5 13 -7 -20 -23 -15 -23 6 0 11 -5 21 -10 23 -6
2 -12 13 -13 26 0 12 -5 22 -9 22 -5 0 -13 11 -18 25 -5 14 -14 25 -20 25 -5
0 -10 7 -10 15 0 8 -4 15 -10 15 -5 0 -10 6 -10 14 0 7 -7 19 -15 26 -8 7 -12
16 -9 21 3 5 -2 9 -10 9 -9 0 -17 5 -17 10 -1 6 -2 14 -3 19 0 5 -5 13 -10 18
-5 5 -6 2 -1 -6 5 -9 4 -12 -3 -7 -7 4 -12 14 -12 22 0 8 -7 17 -16 21 -9 3
-13 12 -10 22 4 11 1 10 -10 -4 -12 -14 -15 -15 -11 -4 3 9 -3 26 -14 38 -19
20 -19 21 1 41 11 11 26 20 33 19 10 0 10 -2 0 -6 -7 -2 -13 -9 -13 -15 0 -6
8 -4 18 5 10 10 24 17 30 17 7 0 12 5 12 11 0 5 -4 8 -9 4 -5 -3 -12 -1 -15 3
-3 5 13 8 35 7 22 -1 42 3 46 8 3 6 1 7 -5 3 -7 -4 -12 -2 -12 3 0 11 11 13
57 14 12 0 20 4 17 8 -3 5 0 17 5 26 6 10 11 12 11 6 0 -7 8 -13 18 -13 13 0
14 2 4 9 -10 6 -9 11 4 22 12 9 15 10 10 2 -4 -7 -2 -13 3 -13 6 0 12 5 12 10
1 6 2 14 3 19 2 19 16 24 16 6 0 -19 15 -12 15 8 1 7 6 11 13 10 7 -2 12 2 12
7 0 10 34 48 47 53 4 1 7 11 6 22 -2 11 0 14 3 8 8 -18 24 -16 24 3 0 10 6 14
15 11 8 -4 17 -1 21 5 4 7 3 8 -5 4 -8 -6 -11 0 -8 21 2 17 12 32 26 38 14 6
20 16 18 27 -3 10 2 23 12 30 14 12 15 11 2 -4 -8 -11 -9 -18 -3 -18 18 0 24
20 11 36 -7 8 -8 14 -3 13 21 -4 35 2 29 12 -4 6 -13 8 -20 5 -14 -5 -14 18 0
31 4 4 5 3 2 -3 -4 -7 2 -14 13 -17 12 -3 20 -1 19 6 -3 28 2 48 10 42 6 -3 8
6 5 20 -2 14 0 25 5 25 5 0 8 8 6 18 -2 9 -4 21 -4 25 -1 5 -7 5 -13 1 -7 -4
-4 2 6 14 24 27 26 27 21 2 -2 -11 0 -20 5 -20 4 0 8 15 8 33 -2 120 2 146 20
141 16 -5 16 -5 0 6 -18 11 -26 36 -9 25 5 -3 13 -1 16 5 4 6 2 9 -3 8 -6 -2
-10 2 -10 7 0 6 4 9 10 7 6 -1 6 4 0 14 -5 9 -7 25 -5 35 3 11 0 19 -6 19 -6
0 -11 5 -11 11 0 5 5 7 10 4 6 -3 10 -1 10 4 0 6 -4 11 -10 11 -14 0 -12 37 3
43 7 3 6 6 -5 6 -9 1 -20 5 -23 11 -3 5 0 7 8 4 8 -3 18 0 23 7 4 8 3 10 -4 5
-12 -7 -17 16 -13 57 1 9 -3 17 -8 17 -6 0 -11 5 -11 11 0 5 4 8 8 5 17 -11 5
37 -13 50 -11 8 -13 14 -6 14 7 0 9 5 6 11 -4 6 -13 8 -21 5 -8 -3 -11 0 -8 9
3 8 13 11 22 9 15 -5 15 -4 0 6 -10 6 -18 19 -18 28 0 9 -7 26 -15 36 -8 11
-15 30 -15 44 0 16 -4 21 -12 16 -9 -5 -8 -2 1 9 8 10 11 20 7 24 -3 3 -6 0
-6 -8 -1 -10 -4 -9 -11 4 -6 9 -14 15 -20 12 -5 -3 -6 1 -2 10 5 13 7 14 14 3
7 -10 9 -10 9 0 0 7 -7 15 -15 18 -8 4 -15 14 -15 25 0 10 -10 23 -21 30 -15
8 -19 8 -15 0 4 -6 3 -11 -2 -11 -5 0 -12 8 -14 18 -3 12 -16 18 -39 20 -24 1
-30 -1 -19 -7 8 -5 18 -7 24 -4 5 3 6 1 2 -6 -6 -9 -14 -8 -32 4 -18 12 -44
15 -102 13 -83 -3 -94 -13 -63 -53 15 -18 15 -19 0 -7 -9 6 -18 9 -21 6 -3 -3
-4 9 -3 26 l3 30 -74 0 c-43 0 -74 -4 -74 -10 0 -5 -5 -10 -11 -10 -5 0 -8 4
-5 9 3 5 -19 8 -49 8 -42 -1 -55 -5 -56 -17 0 -10 -3 -9 -9 5 l-9 20 -1 -20
-1 -20 -9 20 c-7 16 -9 17 -9 3z m83 -6 c2 -4 -4 -8 -14 -8 -10 0 -16 4 -14 8
3 4 9 8 14 8 5 0 11 -4 14 -8z m121 -12 c-3 -5 -12 -10 -18 -10 -7 0 -6 4 3
10 19 12 23 12 15 0z m-305 -15 c0 -8 -2 -15 -4 -15 -2 0 -6 7 -10 15 -3 8 -1
15 4 15 6 0 10 -7 10 -15z m353 0 c-3 -9 -8 -14 -10 -11 -3 3 -2 9 2 15 9 16
15 13 8 -4z m-229 -3 c3 -5 -1 -9 -9 -9 -8 0 -12 4 -9 9 3 4 7 8 9 8 2 0 6 -4
9 -8z m431 -1 c3 -5 2 -12 -3 -15 -5 -3 -9 1 -9 9 0 17 3 19 12 6z m-417 -31
c-7 -10 -14 -17 -17 -15 -4 4 18 35 25 35 2 0 -1 -9 -8 -20z m353 3 c13 -16
12 -17 -3 -4 -17 13 -22 21 -14 21 2 0 10 -8 17 -17z m-419 -8 c3 3 13 -5 24
-17 19 -23 19 -23 -2 -5 -11 9 -23 15 -26 12 -3 -3 -11 3 -19 12 -12 16 -12
17 2 6 9 -7 18 -11 21 -8z m118 0 c-7 -8 -17 -15 -23 -15 -6 0 -2 7 9 15 25
19 30 19 14 0z m78 6 c16 12 16 12 0 -6 -18 -19 -18 -19 -35 0 -17 18 -17 18
0 6 14 -11 20 -11 35 0z m85 -6 c-3 -9 -8 -14 -10 -11 -3 3 -2 9 2 15 9 16 15
13 8 -4z m48 -2 c13 -16 12 -17 -3 -4 -17 13 -22 21 -14 21 2 0 10 -8 17 -17z
m128 -13 c11 -24 11 -24 -3 -6 -9 11 -16 24 -16 30 0 12 5 7 19 -24z m58 12
c-10 -10 -15 -21 -12 -24 3 -2 -2 -5 -10 -5 -10 0 -12 4 -5 12 5 7 6 16 2 20
-4 5 -2 5 5 1 6 -3 14 -2 18 4 3 5 9 10 12 10 3 0 -1 -8 -10 -18z m-290 -10
c0 -10 -6 -19 -13 -19 -9 0 -9 5 -1 19 7 10 13 18 14 18 1 0 1 -8 0 -18z m162
15 c-2 -1 -13 -9 -24 -17 -19 -14 -19 -14 -6 3 7 9 18 17 24 17 6 0 8 -1 6 -3z
m201 -12 c0 -2 -9 -3 -19 -2 -11 0 -18 5 -15 9 4 6 34 0 34 -7z m-437 -8 c3
-7 -3 -13 -14 -13 -13 0 -15 3 -7 13 6 7 12 13 13 13 2 0 5 -6 8 -13z m158 -4
c13 -16 12 -17 -3 -4 -17 13 -22 21 -14 21 2 0 10 -8 17 -17z m-521 -3 c0 -5
-5 -10 -11 -10 -5 0 -7 5 -4 10 3 6 8 10 11 10 2 0 4 -4 4 -10z m-160 -6 c0
-8 -19 -13 -24 -6 -3 5 1 9 9 9 8 0 15 -2 15 -3z m218 -19 c-3 -3 -9 2 -12 12
-6 14 -5 15 5 6 7 -7 10 -15 7 -18z m160 0 c-3 -3 -9 2 -12 12 -6 14 -5 15 5
6 7 -7 10 -15 7 -18z m-244 -1 c3 -8 2 -12 -4 -9 -6 3 -10 10 -10 16 0 14 7
11 14 -7z m60 0 c3 -8 2 -12 -4 -9 -6 3 -10 10 -10 16 0 14 7 11 14 -7z m131
6 c3 -6 -1 -7 -9 -4 -18 7 -21 14 -7 14 6 0 13 -4 16 -10z m459 1 c-8 -8 -34
-10 -38 -2 -3 4 6 7 19 7 14 0 22 -2 19 -5z m-703 -18 c13 -16 12 -17 -3 -4
-10 7 -18 15 -18 17 0 8 8 3 21 -13z m-101 3 c0 -3 -4 -8 -10 -11 -5 -3 -10
-1 -10 4 0 6 5 11 10 11 6 0 10 -2 10 -4z m257 -13 c-21 -21 -74 -26 -74 -7 0
9 4 10 12 4 14 -11 42 -7 57 8 7 7 14 12 17 12 3 0 -3 -8 -12 -17z m74 0 c13
-16 12 -17 -3 -4 -17 13 -22 21 -14 21 2 0 10 -8 17 -17z m280 0 c13 -16 12
-17 -3 -4 -17 13 -22 21 -14 21 2 0 10 -8 17 -17z m160 0 c13 -16 12 -17 -3
-4 -17 13 -22 21 -14 21 2 0 10 -8 17 -17z m166 -3 c1 -11 -2 -20 -7 -20 -6 0
-7 17 -1 38 3 8 7 -1 8 -18z m-907 -5 c-7 -8 -17 -15 -23 -15 -6 0 -2 7 9 15
25 19 30 19 14 0z m122 0 c2 3 5 -2 5 -10 0 -10 -4 -12 -12 -5 -7 5 -14 8 -17
5 -2 -3 -5 2 -5 10 0 10 4 12 12 5 7 -5 14 -8 17 -5z m245 2 c0 -8 -6 -14 -14
-14 -9 0 -10 4 -2 14 6 7 12 13 14 13 1 0 2 -6 2 -13z m151 4 c16 12 16 12 0
-6 -18 -19 -18 -19 -35 0 -17 18 -17 18 0 6 14 -11 20 -11 35 0z m-249 -4 c-2
-1 -13 -9 -24 -17 -19 -14 -19 -14 -6 3 7 9 18 17 24 17 6 0 8 -1 6 -3z m381
-1 c0 -3 -4 -8 -10 -11 -5 -3 -10 -1 -10 4 0 6 5 11 10 11 6 0 10 -2 10 -4z
m311 -13 c13 -16 12 -17 -3 -4 -17 13 -22 21 -14 21 2 0 10 -8 17 -17z m-490
-10 c13 -16 12 -17 -3 -4 -17 13 -22 21 -14 21 2 0 10 -8 17 -17z m-113 -11
c7 7 12 9 12 6 0 -3 -6 -11 -14 -17 -12 -10 -17 -8 -26 11 -10 20 -10 21 3 6
10 -13 16 -15 25 -6z m586 10 c3 -5 -1 -9 -9 -9 -8 0 -12 4 -9 9 3 4 7 8 9 8
2 0 6 -4 9 -8z m92 -4 c3 -4 -1 -5 -10 -4 -8 1 -18 5 -22 8 -3 4 1 5 10 4 8
-1 18 -5 22 -8z m-1228 -23 c-3 -3 -9 2 -12 12 -6 14 -5 15 5 6 7 -7 10 -15 7
-18z m179 12 c0 -8 -6 -14 -14 -14 -9 0 -10 4 -2 14 6 7 12 13 14 13 1 0 2 -6
2 -13z m178 4 c3 -5 2 -12 -3 -15 -5 -3 -9 1 -9 9 0 17 3 19 12 6z m42 -4 c0
-8 -6 -14 -14 -14 -9 0 -10 4 -2 14 6 7 12 13 14 13 1 0 2 -6 2 -13z m436 -2
c-3 -9 -8 -14 -10 -11 -3 3 -2 9 2 15 9 16 15 13 8 -4z m-799 -11 c3 -8 2 -12
-4 -9 -6 3 -10 10 -10 16 0 14 7 11 14 -7z m186 10 c0 -8 -19 -13 -24 -6 -3 5
1 9 9 9 8 0 15 -2 15 -3z m230 0 c0 -8 -19 -13 -24 -6 -3 5 1 9 9 9 8 0 15 -2
15 -3z m55 -4 c3 -6 -1 -7 -9 -4 -18 7 -21 14 -7 14 6 0 13 -4 16 -10z m505 6
c0 -2 -8 -10 -17 -17 -16 -13 -17 -12 -4 4 13 16 21 21 21 13z m141 -19 c-10
-9 -11 -8 -5 6 3 10 9 15 12 12 3 -3 0 -11 -7 -18z m-50 -4 c13 -16 12 -17 -3
-4 -17 13 -22 21 -14 21 2 0 10 -8 17 -17z m115 -8 c-3 -23 -12 -26 -13 -5 -1
11 2 20 7 20 4 0 7 -7 6 -15z m-1062 -25 c-6 -6 -10 -3 -10 10 0 13 4 16 10
10 7 -7 7 -13 0 -20z m359 15 c-3 -9 -8 -14 -10 -11 -3 3 -2 9 2 15 9 16 15
13 8 -4z m364 -7 c0 -13 -1 -17 -4 -10 -3 6 -9 10 -13 7 -5 -3 -12 0 -16 6 -4
7 -3 9 4 5 6 -3 13 -2 17 4 9 14 11 13 12 -12z m42 9 c8 -10 7 -14 -2 -14 -8
0 -14 6 -14 14 0 7 1 13 2 13 2 0 8 -6 14 -13z m162 -4 c8 -9 9 -14 2 -10 -6
4 -13 1 -16 -5 -3 -7 -4 -3 -4 10 1 26 1 26 18 5z m-1046 -3 c3 -5 1 -10 -4
-10 -6 0 -11 5 -11 10 0 6 2 10 4 10 3 0 8 -4 11 -10z m75 5 c0 -2 -6 -8 -13
-14 -10 -8 -14 -7 -14 2 0 8 6 14 14 14 7 0 13 -1 13 -2z m87 -12 c0 -9 -4
-10 -14 -2 -7 6 -13 12 -13 14 0 1 6 2 13 2 8 0 14 -6 14 -14z m79 5 c4 -7 3
-10 -1 -5 -5 4 -18 -1 -29 -10 -21 -18 -21 -18 -2 5 22 26 23 26 32 10z m138
3 c-8 -8 -34 -10 -38 -2 -3 4 6 7 19 7 14 0 22 -2 19 -5z m606 -16 c14 -19 14
-19 -2 -6 -10 7 -18 18 -18 24 0 6 1 8 3 6 1 -2 9 -13 17 -24z m160 0 c14 -19
14 -19 -2 -6 -10 7 -18 18 -18 24 0 6 1 8 3 6 1 -2 9 -13 17 -24z m79 22 c-2
-1 -13 -9 -24 -17 -19 -14 -19 -14 -6 3 7 9 18 17 24 17 6 0 8 -1 6 -3z m-679
-11 c0 -2 -8 -10 -17 -17 -16 -13 -17 -12 -4 4 13 16 21 21 21 13z m235 -14
c-3 -3 0 -11 6 -19 17 -20 5 -16 -14 5 -15 16 -15 19 -2 19 8 0 13 -3 10 -5z
m34 -6 c9 -11 9 -16 -1 -22 -7 -4 -10 -4 -6 1 4 4 3 14 -3 22 -6 7 -9 13 -6
13 2 0 10 -6 16 -14z m94 -1 c-3 -9 -8 -14 -10 -11 -3 3 -2 9 2 15 9 16 15 13
8 -4z m33 -11 c1 -9 0 -13 -3 -10 -4 3 -13 0 -22 -6 -12 -10 -12 -7 2 8 9 11
15 24 12 27 -3 4 -2 5 2 2 4 -3 8 -13 9 -21z m134 23 c0 -2 -10 -13 -23 -25
-18 -17 -24 -19 -24 -8 0 8 4 13 8 11 3 -3 12 2 19 10 12 14 20 19 20 12z m25
-6 c3 -5 2 -12 -3 -15 -5 -3 -9 1 -9 9 0 17 3 19 12 6z m-859 -21 c0 -12 -4
-16 -9 -11 -5 5 -6 14 -3 20 10 15 12 14 12 -9z m160 0 c0 -12 -4 -16 -9 -11
-5 5 -6 14 -3 20 10 15 12 14 12 -9z m276 5 c3 3 13 -5 24 -17 19 -23 19 -23
-1 -7 -11 9 -27 15 -36 14 -9 -2 -16 3 -16 11 0 9 4 11 12 4 7 -5 14 -8 17 -5z
m-515 -12 c0 -9 -4 -10 -12 -3 -7 5 -15 7 -18 3 -4 -3 -7 -1 -7 5 0 6 8 10 18
9 10 0 19 -7 19 -14z m143 13 c0 -2 -7 -7 -16 -10 -8 -3 -12 -2 -9 4 6 10 25
14 25 6z m62 -28 c-8 -8 -9 -4 -5 13 4 13 8 18 11 10 2 -7 -1 -18 -6 -23z
m469 9 c-10 -9 -11 -8 -5 6 3 10 9 15 12 12 3 -3 0 -11 -7 -18z m280 0 c-10
-9 -11 -8 -5 6 3 10 9 15 12 12 3 -3 0 -11 -7 -18z m83 7 c3 -8 2 -12 -4 -9
-6 3 -10 10 -10 16 0 14 7 11 14 -7z m-1217 -11 c-4 -3 1 -16 10 -27 14 -15
14 -18 2 -8 -9 6 -18 9 -22 6 -3 -3 -4 2 -2 13 5 24 4 23 12 23 3 0 3 -3 0 -7z
m38 -1 c-3 -3 0 -11 6 -19 17 -20 5 -16 -14 5 -15 16 -15 19 -2 19 8 0 13 -3
10 -5z m45 -6 c-7 -7 -13 -7 -20 0 -6 6 -3 10 10 10 13 0 16 -4 10 -10z m34 5
c3 -5 -2 -15 -12 -22 -15 -12 -16 -12 -5 2 7 9 10 19 6 22 -3 4 -4 7 0 7 3 0
8 -4 11 -9z m366 5 c0 -2 -7 -7 -16 -10 -8 -3 -12 -2 -9 4 6 10 25 14 25 6z
m35 -4 c-3 -3 0 -11 6 -19 17 -20 5 -16 -14 5 -15 16 -15 19 -2 19 8 0 13 -3
10 -5z m45 -6 c-7 -7 -13 -7 -20 0 -6 6 -3 10 10 10 13 0 16 -4 10 -10z m50 9
c0 -1 -10 -10 -22 -21 -14 -12 -18 -13 -10 -3 6 9 10 18 7 21 -3 2 2 5 10 5 8
0 15 -1 15 -2z m155 -5 c-3 -5 -12 -10 -18 -10 -7 0 -6 4 3 10 19 12 23 12 15
0z m125 6 c0 -2 -8 -10 -17 -17 -16 -13 -17 -12 -4 4 13 16 21 21 21 13z
m-593 -21 c0 -8 -4 -12 -8 -9 -4 2 -10 0 -14 -6 -3 -5 -11 -10 -17 -10 -7 0
26 35 38 40 0 0 1 -7 1 -15z m404 -2 c13 -16 12 -17 -3 -4 -17 13 -22 21 -14
21 2 0 10 -8 17 -17z m118 4 c8 -10 7 -14 -2 -14 -8 0 -14 6 -14 14 0 7 1 13
2 13 2 0 8 -6 14 -13z m161 9 c0 -2 -6 -9 -14 -15 -11 -9 -16 -9 -22 0 -4 7
-3 9 4 5 6 -3 13 -2 17 4 6 10 15 14 15 6z m41 -13 c13 -16 12 -17 -3 -4 -10
7 -18 15 -18 17 0 8 8 3 21 -13z m139 13 c0 -2 -6 -9 -14 -15 -11 -9 -16 -9
-22 0 -4 7 -3 9 4 5 6 -3 13 -2 17 4 6 10 15 14 15 6z m28 -7 c-2 -3 4 -14 12
-25 14 -18 14 -18 -2 -5 -10 7 -16 17 -13 21 3 5 0 11 -5 13 -7 4 -6 5 1 4 6
-2 9 -5 7 -8z m-1233 -17 c-3 -3 -11 0 -18 7 -9 10 -8 11 6 5 10 -3 15 -9 12
-12z m442 11 c-4 -3 -1 -13 6 -22 11 -14 10 -14 -5 -2 -16 12 -16 31 -1 31 4
0 3 -3 0 -7z m94 -10 c13 -16 12 -17 -3 -4 -17 13 -22 21 -14 21 2 0 10 -8 17
-17z m153 5 c-4 -5 -9 -7 -12 -4 -3 3 -12 0 -21 -7 -14 -10 -14 -10 -4 4 13
16 46 23 37 7z m290 -4 c3 -8 2 -12 -4 -9 -6 3 -10 10 -10 16 0 14 7 11 14 -7z
m146 -9 c14 -19 14 -19 -2 -6 -10 7 -18 18 -18 24 0 6 1 8 3 6 1 -2 9 -13 17
-24z m153 7 c15 -16 15 -19 2 -19 -8 0 -13 3 -10 5 3 3 0 11 -6 19 -17 20 -5
16 14 -5z m-556 -5 c0 -8 -6 -14 -14 -14 -9 0 -10 4 -2 14 6 7 12 13 14 13 1
0 2 -6 2 -13z m321 0 c8 -10 6 -13 -7 -13 -11 0 -17 6 -14 13 3 7 6 13 8 13 1
0 7 -6 13 -13z m119 -19 c2 -12 1 -19 -2 -16 -3 3 -8 16 -10 28 -2 12 -1 20 2
16 4 -4 8 -16 10 -28z m-957 16 c0 -8 -19 -13 -24 -6 -3 5 1 9 9 9 8 0 15 -2
15 -3z m681 -7 c-6 -8 -7 -17 -3 -22 4 -4 -3 -2 -15 4 -25 13 -31 24 -9 15 8
-3 17 -1 21 5 3 6 9 11 12 11 3 0 0 -6 -6 -13z m204 3 c-3 -5 -12 -10 -18 -10
-7 0 -6 4 3 10 19 12 23 12 15 0z m240 1 c3 -5 0 -13 -6 -17 -7 -4 -9 -3 -5 4
3 5 0 13 -6 15 -9 4 -10 6 -1 6 6 1 14 -3 18 -8z m-1487 -26 c-3 -3 -9 2 -12
12 -6 14 -5 15 5 6 7 -7 10 -15 7 -18z m35 10 c-3 -9 -8 -14 -10 -11 -3 3 -2
9 2 15 9 16 15 13 8 -4z m255 -2 c-9 -10 -14 -26 -13 -36 2 -9 -1 -15 -5 -12
-12 7 -3 47 12 57 20 12 22 9 6 -9z m205 2 c-3 -9 -8 -14 -10 -11 -3 3 -2 9 2
15 9 16 15 13 8 -4z m81 -15 c-6 -6 -10 -3 -10 10 0 13 4 16 10 10 7 -7 7 -13
0 -20z m98 18 c-14 -14 -44 -20 -36 -7 3 5 9 7 14 4 5 -3 11 -1 15 5 3 5 9 10
13 10 3 0 1 -5 -6 -12z m103 2 c-3 -5 -12 -10 -18 -10 -7 0 -6 4 3 10 19 12
23 12 15 0z m160 1 c3 -5 2 -12 -3 -15 -5 -3 -9 1 -9 9 0 17 3 19 12 6z m-721
-9 c3 -5 -1 -9 -9 -9 -8 0 -12 4 -9 9 3 4 7 8 9 8 2 0 6 -4 9 -8z m223 1 c-9
-8 -57 -13 -57 -6 0 5 14 9 31 9 16 1 28 0 26 -3z m80 -13 c-2 -11 -6 -22 -9
-26 -4 -3 -5 2 -3 13 2 10 4 21 4 26 1 4 3 7 6 7 3 0 4 -9 2 -20z m174 -3
c-10 -9 -11 -8 -5 6 3 10 9 15 12 12 3 -3 0 -11 -7 -18z m-575 -2 c-1 -8 -5
-17 -8 -21 -5 -4 -4 16 1 34 3 9 9 -1 7 -13z m844 11 c0 -2 -8 -10 -17 -17
-16 -13 -17 -12 -4 4 13 16 21 21 21 13z m320 0 c0 -2 -8 -10 -17 -17 -16 -13
-17 -12 -4 4 13 16 21 21 21 13z m-1202 -26 c-7 -10 -14 -17 -17 -15 -4 4 18
35 25 35 2 0 -1 -9 -8 -20z m679 0 c1 -11 -2 -20 -5 -20 -4 0 -8 9 -9 20 -1
11 2 20 5 20 4 0 8 -9 9 -20z m55 -5 c3 3 13 -5 24 -17 19 -23 19 -23 -2 -5
-11 9 -23 15 -26 12 -3 -3 -13 5 -24 17 -19 23 -19 23 2 5 11 -9 23 -15 26
-12z m223 7 c-3 -3 -11 0 -18 7 -9 10 -8 11 6 5 10 -3 15 -9 12 -12z m45 14
c0 -2 -7 -7 -16 -10 -8 -3 -12 -2 -9 4 6 10 25 14 25 6z m37 -13 c0 -9 -4 -10
-14 -2 -7 6 -13 12 -13 14 0 1 6 2 13 2 8 0 14 -6 14 -14z m333 12 c0 -1 -10
-10 -22 -21 -14 -12 -18 -13 -10 -3 6 9 10 18 7 21 -3 2 2 5 10 5 8 0 15 -1
15 -2z m-1042 -14 c16 12 16 12 0 -6 -18 -19 -18 -19 -35 0 -17 18 -17 18 0 6
14 -11 20 -11 35 0z m245 -6 c-3 -9 -8 -14 -10 -11 -3 3 -2 9 2 15 9 16 15 13
8 -4z m237 0 c-7 -8 -17 -15 -23 -15 -6 0 -2 7 9 15 25 19 30 19 14 0z m87 -7
c0 -13 -1 -17 -4 -10 -3 6 -10 9 -16 5 -7 -4 -6 1 2 10 17 21 17 21 18 -5z
m217 -7 c-2 -3 -12 3 -22 13 -16 17 -16 18 5 5 12 -7 20 -15 17 -18z m103 10
c-1 -15 -4 -17 -14 -9 -15 12 -17 22 -3 13 6 -3 10 -1 10 4 0 6 2 11 4 11 3 0
4 -9 3 -19z m-937 -16 c14 -19 14 -19 -2 -6 -10 7 -18 18 -18 24 0 6 1 8 3 6
1 -2 9 -13 17 -24z m225 16 c-3 -2 -16 -6 -28 -8 -15 -2 -18 0 -9 5 14 9 45
12 37 3z m120 0 c-3 -2 -16 -6 -28 -8 -15 -2 -18 0 -9 5 14 9 45 12 37 3z
m445 5 c0 -2 -8 -10 -17 -17 -16 -13 -17 -12 -4 4 13 16 21 21 21 13z m-710
-10 c0 -2 -8 -10 -17 -17 -16 -13 -17 -12 -4 4 13 16 21 21 21 13z m800 0 c0
-2 -8 -10 -17 -17 -16 -13 -17 -12 -4 4 13 16 21 21 21 13z m-1445 -16 c3 -5
1 -10 -4 -10 -6 0 -11 5 -11 10 0 6 2 10 4 10 3 0 8 -4 11 -10z m1160 -18 c-3
-3 1 -12 8 -21 11 -14 10 -14 -6 -2 -9 8 -15 16 -12 19 3 3 -1 12 -8 21 -11
14 -10 14 6 2 9 -8 15 -16 12 -19z m316 11 c13 -16 12 -17 -3 -4 -10 7 -18 15
-18 17 0 8 8 3 21 -13z m140 -5 c2 6 13 -2 23 -16 20 -27 20 -27 0 -9 -12 9
-23 15 -26 12 -3 -3 -13 5 -24 17 l-19 23 21 -18 c12 -10 24 -14 25 -9z
m-1273 -13 c-3 -3 -9 2 -12 12 -6 14 -5 15 5 6 7 -7 10 -15 7 -18z m198 -1 c1
-9 0 -13 -4 -10 -3 4 -7 14 -8 22 -1 9 0 13 4 10 3 -4 7 -14 8 -22z m121 11
c0 -8 -4 -12 -9 -9 -5 3 -6 10 -3 15 9 13 12 11 12 -6z m119 0 c-1 -8 -5 -17
-8 -21 -5 -4 -4 16 1 34 3 9 9 -1 7 -13z m320 -11 c1 -9 0 -13 -4 -10 -3 4 -7
14 -8 22 -1 9 0 13 4 10 3 -4 7 -14 8 -22z m164 22 c0 -2 -8 -10 -17 -17 -16
-13 -17 -12 -4 4 13 16 21 21 21 13z m292 -11 c3 3 11 -3 19 -12 12 -16 12
-17 -2 -6 -9 7 -18 11 -21 8 -3 -3 -11 3 -19 12 -12 16 -12 17 2 6 9 -7 18
-11 21 -8z m122 -14 c-2 -3 -12 3 -22 13 -16 17 -16 18 5 5 12 -7 20 -15 17
-18z m-1474 15 c0 -2 -7 -7 -16 -10 -8 -3 -12 -2 -9 4 6 10 25 14 25 6z m1013
-16 c10 -12 9 -12 -4 -2 -9 6 -18 9 -21 6 -3 -3 -9 -1 -12 4 -9 15 22 8 37 -8z
m97 16 c0 -2 -8 -10 -17 -17 -16 -13 -17 -12 -4 4 13 16 21 21 21 13z m146 -8
c4 -7 3 -10 -1 -5 -5 4 -18 -1 -29 -10 -21 -18 -21 -18 -2 5 22 26 23 26 32
10z m35 -11 c-10 -9 -11 -8 -5 6 3 10 9 15 12 12 3 -3 0 -11 -7 -18z m-1330
-4 c13 -16 12 -17 -3 -4 -10 7 -18 15 -18 17 0 8 8 3 21 -13z m159 13 c0 -2
-8 -10 -17 -17 -16 -13 -17 -12 -4 4 13 16 21 21 21 13z m-122 -26 c-7 -10
-14 -17 -17 -15 -4 4 18 35 25 35 2 0 -1 -9 -8 -20z m81 -14 c-3 -3 -11 5 -18
17 -13 21 -12 21 5 5 10 -10 16 -20 13 -22z m1078 19 c0 -8 -4 -12 -9 -9 -4 3
-8 9 -8 15 0 5 4 9 8 9 5 0 9 -7 9 -15z m38 -3 c-3 -3 -11 0 -18 7 -9 10 -8
11 6 5 10 -3 15 -9 12 -12z m-1254 -9 c13 -16 12 -17 -3 -4 -17 13 -22 21 -14
21 2 0 10 -8 17 -17z m199 13 c0 -2 -8 -10 -17 -17 -16 -13 -17 -12 -4 4 13
16 21 21 21 13z m41 -13 c13 -16 12 -17 -3 -4 -17 13 -22 21 -14 21 2 0 10 -8
17 -17z m91 2 c3 0 9 -3 13 -7 4 -3 0 -5 -9 -4 -9 1 -22 8 -29 16 -10 10 -9
11 3 4 8 -5 18 -9 22 -9z m669 -2 c13 -16 12 -17 -3 -4 -17 13 -22 21 -14 21
2 0 10 -8 17 -17z m314 7 c-3 -5 -12 -10 -18 -10 -7 0 -6 4 3 10 19 12 23 12
15 0z m100 0 c4 -6 10 -8 14 -6 4 3 8 -1 8 -9 0 -12 -4 -12 -21 2 -12 10 -23
19 -25 20 -2 2 1 3 7 3 6 0 14 -5 17 -10z m85 -13 c0 -2 -8 -3 -18 -3 -10 0
-19 6 -19 13 0 8 6 9 19 2 10 -5 18 -11 18 -12z m-3043 -9 c-3 -8 -6 -5 -6 6
-1 11 2 17 5 13 3 -3 4 -12 1 -19z m1478 14 c-3 -3 0 -11 6 -19 17 -20 5 -16
-14 5 -15 16 -15 19 -2 19 8 0 13 -3 10 -5z m38 -10 c15 -16 15 -19 2 -19 -8
0 -13 3 -10 5 3 3 0 11 -6 19 -17 20 -5 16 14 -5z m317 14 c0 -2 -8 -10 -17
-17 -16 -13 -17 -12 -4 4 13 16 21 21 21 13z m84 -12 c3 -8 2 -12 -4 -9 -6 3
-10 10 -10 16 0 14 7 11 14 -7z m163 1 c0 -8 -4 -12 -9 -9 -5 3 -6 10 -3 15 9
13 12 11 12 -6z m53 12 c0 -2 -10 -12 -22 -23 l-23 -19 19 23 c18 21 26 27 26
19z m41 -20 c-10 -9 -11 -8 -5 6 3 10 9 15 12 12 3 -3 0 -11 -7 -18z m114 13
c-3 -5 -12 -10 -18 -10 -7 0 -6 4 3 10 19 12 23 12 15 0z m195 5 c0 -7 -30
-13 -34 -7 -3 4 4 9 15 9 10 1 19 0 19 -2z m191 -12 c12 -16 12 -17 -2 -6 -9
7 -20 9 -24 5 -5 -4 -5 -1 -1 6 9 16 11 15 27 -5z m210 4 c-6 -8 -9 -16 -6
-19 3 -2 -2 -5 -10 -5 -13 0 -13 3 2 19 19 21 31 25 14 5z m-1123 -10 c8 -10
6 -13 -7 -13 -11 0 -17 6 -14 13 3 7 6 13 8 13 1 0 7 -6 13 -13z m-118 -7 c0
-5 -4 -10 -10 -10 -5 0 -10 5 -10 10 0 6 5 10 10 10 6 0 10 -4 10 -10z m797
-5 c0 -8 -4 -12 -9 -9 -5 3 -6 10 -3 15 9 13 12 11 12 -6z m158 -3 c-3 -3 -11
0 -18 7 -9 10 -8 11 6 5 10 -3 15 -9 12 -12z m125 6 c0 -4 -4 -8 -9 -8 -6 0
-12 4 -15 8 -3 5 1 9 9 9 8 0 15 -4 15 -9z m80 -2 c-7 -7 -13 -7 -20 0 -6 6
-3 10 10 10 13 0 16 -4 10 -10z m120 10 c0 -2 -7 -7 -16 -10 -8 -3 -12 -2 -9
4 6 10 25 14 25 6z m31 -13 c13 -16 12 -17 -3 -4 -17 13 -22 21 -14 21 2 0 10
-8 17 -17z m-1371 -14 c0 -5 -4 -9 -8 -9 -5 0 -9 7 -9 15 0 8 4 12 9 9 4 -3 8
-9 8 -15z m117 6 c0 -8 -4 -15 -9 -15 -10 0 -11 14 -1 23 9 10 10 9 10 -8z
m-1822 -5 c3 -5 1 -10 -4 -10 -6 0 -11 5 -11 10 0 6 2 10 4 10 3 0 8 -4 11
-10z m1499 2 c3 -5 -1 -9 -9 -9 -8 0 -12 4 -9 9 3 4 7 8 9 8 2 0 6 -4 9 -8z
m100 -8 c3 -8 2 -12 -4 -9 -6 3 -10 10 -10 16 0 14 7 11 14 -7z m376 11 c0 -2
-6 -8 -13 -14 -10 -8 -14 -7 -14 2 0 8 6 14 14 14 7 0 13 -1 13 -2z m66 -21
c1 -9 0 -13 -4 -10 -3 4 -7 14 -8 22 -1 9 0 13 4 10 3 -4 7 -14 8 -22z m35 9
c13 -16 12 -17 -3 -4 -10 7 -18 15 -18 17 0 8 8 3 21 -13z m123 6 c3 -3 -5 -5
-19 -5 -13 0 -22 3 -19 7 4 8 30 6 38 -2z m146 2 c0 -6 -4 -12 -8 -15 -5 -3
-9 1 -9 9 0 8 4 15 9 15 4 0 8 -4 8 -9z m456 -17 c1 -9 0 -13 -4 -10 -3 4 -7
14 -8 22 -1 9 0 13 4 10 3 -4 7 -14 8 -22z m-83 1 c-3 -9 -8 -14 -10 -11 -3 3
-2 9 2 15 9 16 15 13 8 -4z m-1082 -12 c13 -16 12 -17 -3 -4 -17 13 -22 21
-14 21 2 0 10 -8 17 -17z m651 10 c-6 -3 -9 -10 -5 -16 4 -7 -1 -6 -10 2 -21
17 -21 17 6 18 12 0 16 -1 9 -4z m358 -5 c0 -4 -4 -8 -9 -8 -6 0 -12 4 -15 8
-3 5 1 9 9 9 8 0 15 -4 15 -9z m-1206 -28 c-6 -6 -10 -3 -10 10 0 13 4 16 10
10 7 -7 7 -13 0 -20z m140 0 c-6 -6 -10 -3 -10 10 0 13 4 16 10 10 7 -7 7 -13
0 -20z m633 12 c-10 -10 -14 -22 -10 -25 3 -4 1 -7 -5 -7 -7 0 -12 3 -12 7 0
8 31 43 38 43 3 0 -2 -8 -11 -18z m233 15 c0 -2 -8 -11 -18 -20 -15 -14 -19
-15 -19 -2 0 8 4 12 8 9 4 -2 10 0 14 6 6 10 15 14 15 7z m140 -1 c0 -2 -8
-10 -17 -17 -16 -13 -17 -12 -4 4 13 16 21 21 21 13z m417 -11 c0 -8 -4 -12
-9 -9 -5 3 -6 10 -3 15 9 13 12 11 12 -6z m-3002 -4 c3 -5 2 -12 -3 -15 -5 -3
-9 1 -9 9 0 17 3 19 12 6z m1485 -1 c0 -5 -5 -10 -11 -10 -5 0 -7 5 -4 10 3 6
8 10 11 10 2 0 4 -4 4 -10z m57 -5 c0 -8 -4 -12 -9 -9 -4 3 -8 9 -8 15 0 5 4
9 8 9 5 0 9 -7 9 -15z m183 11 c0 -2 -7 -7 -16 -10 -8 -3 -12 -2 -9 4 6 10 25
14 25 6z m85 -6 c3 -6 -1 -7 -9 -4 -18 7 -21 14 -7 14 6 0 13 -4 16 -10z m189
2 c3 -5 -1 -9 -9 -9 -8 0 -12 4 -9 9 3 4 7 8 9 8 2 0 6 -4 9 -8z m116 3 c0 -2
-6 -8 -13 -14 -10 -8 -14 -7 -14 2 0 8 6 14 14 14 7 0 13 -1 13 -2z m141 -12
c13 -16 12 -17 -3 -4 -17 13 -22 21 -14 21 2 0 10 -8 17 -17z m59 13 c0 -2 -8
-10 -17 -17 -16 -13 -17 -12 -4 4 13 16 21 21 21 13z m50 -21 c14 -19 14 -19
-2 -6 -10 7 -18 18 -18 24 0 6 1 8 3 6 1 -2 9 -13 17 -24z m153 10 c4 -8 3
-16 -1 -19 -4 -3 -9 4 -9 15 -2 23 3 25 10 4z m98 -2 c13 -16 12 -17 -3 -4
-17 13 -22 21 -14 21 2 0 10 -8 17 -17z m80 0 c13 -16 12 -17 -3 -4 -15 11
-21 11 -35 0 -16 -13 -17 -12 -4 4 7 9 17 17 21 17 4 0 14 -8 21 -17z m426 10
c-4 -3 -2 -11 3 -18 7 -8 5 -12 -4 -12 -8 0 -12 7 -11 16 5 22 4 21 12 21 3 0
3 -3 0 -7z m-636 -20 c13 -16 12 -17 -3 -4 -10 7 -18 15 -18 17 0 8 8 3 21
-13z m-247 -1 c3 -5 -1 -9 -9 -9 -8 0 -12 4 -9 9 3 4 7 8 9 8 2 0 6 -4 9 -8z
m96 4 c0 -2 -8 -10 -17 -17 -16 -13 -17 -12 -4 4 13 16 21 21 21 13z m480 0
c0 -2 -8 -10 -17 -17 -16 -13 -17 -12 -4 4 13 16 21 21 21 13z m162 -21 c2 3
5 -2 5 -10 0 -10 -4 -12 -12 -5 -7 5 -16 6 -21 2 -5 -4 -6 -3 -2 2 4 5 2 16
-4 25 -10 12 -7 12 8 -2 11 -9 23 -15 26 -12z m-959 0 c-3 -9 -8 -14 -10 -11
-3 3 -2 9 2 15 9 16 15 13 8 -4z m384 -14 c0 -10 -7 -18 -14 -18 -9 0 -10 4
-2 13 6 7 7 19 3 25 -4 7 -3 9 4 5 6 -3 10 -15 9 -25z m61 -2 c-3 -8 -7 -3
-11 10 -4 17 -3 21 5 13 5 -5 8 -16 6 -23z m302 6 c-7 -8 -9 -15 -5 -15 4 0 2
-7 -5 -15 -7 -8 -18 -15 -24 -15 -6 0 -3 5 6 10 10 6 15 19 13 30 -2 11 0 18
6 15 5 -4 9 -1 9 6 0 7 3 9 6 6 4 -4 1 -13 -6 -22z m156 13 c5 4 6 3 2 -2 -4
-5 -2 -16 5 -25 10 -14 10 -14 -5 -3 -9 8 -21 11 -25 9 -5 -3 -9 3 -9 13 0 13
4 16 12 10 6 -6 15 -6 20 -2z m251 6 c-3 -3 -12 -4 -19 -1 -8 3 -5 6 6 6 11 1
17 -2 13 -5z m61 -20 c0 -17 -3 -22 -8 -13 -5 6 -6 18 -3 26 8 19 11 16 11
-13z m-3233 7 c3 -5 2 -12 -3 -15 -5 -3 -9 1 -9 9 0 17 3 19 12 6z m1420 -1
c3 -5 1 -10 -4 -10 -6 0 -11 5 -11 10 0 6 2 10 4 10 3 0 8 -4 11 -10z m399 -6
c3 -8 2 -12 -4 -9 -6 3 -10 10 -10 16 0 14 7 11 14 -7z m262 1 c-3 -23 -12
-26 -13 -5 -1 11 2 20 7 20 4 0 7 -7 6 -15z m175 -8 c-10 -9 -11 -8 -5 6 3 10
9 15 12 12 3 -3 0 -11 -7 -18z m369 11 c0 -4 -4 -8 -9 -8 -6 0 -12 4 -15 8 -3
5 1 9 9 9 8 0 15 -4 15 -9z m60 2 c0 -5 -4 -10 -10 -10 -5 0 -10 5 -10 10 0 6
5 10 10 10 6 0 10 -4 10 -10z m-921 -13 c8 -10 7 -14 -2 -14 -8 0 -14 6 -14
14 0 7 1 13 2 13 2 0 8 -6 14 -13z m282 -4 c13 -16 12 -17 -3 -4 -17 13 -22
21 -14 21 2 0 10 -8 17 -17z m160 0 c13 -16 12 -17 -3 -4 -17 13 -22 21 -14
21 2 0 10 -8 17 -17z m239 13 c0 -2 -8 -10 -17 -17 -16 -13 -17 -12 -4 4 13
16 21 21 21 13z m-716 -14 c2 -4 -4 -8 -14 -8 -10 0 -16 4 -14 8 3 4 9 8 14 8
5 0 11 -4 14 -8z m396 -7 c-10 -12 -10 -18 1 -32 12 -17 12 -17 -6 -1 -15 14
-16 20 -5 32 7 9 15 16 17 16 3 0 0 -7 -7 -15z m239 -19 c-3 -3 -11 5 -18 17
-13 21 -12 21 5 5 10 -10 16 -20 13 -22z m165 26 c2 -4 -4 -8 -14 -8 -10 0
-16 4 -14 8 3 4 9 8 14 8 5 0 11 -4 14 -8z m521 -2 c-4 -6 -1 -19 6 -28 12
-16 12 -16 -5 0 -16 14 -15 38 0 38 3 0 2 -5 -1 -10z m45 5 c0 -2 -6 -8 -13
-14 -10 -8 -14 -7 -14 2 0 8 6 14 14 14 7 0 13 -1 13 -2z m-1532 -30 c-3 -3
-9 2 -12 12 -6 14 -5 15 5 6 7 -7 10 -15 7 -18z m99 10 c0 -8 -3 -13 -5 -10
-3 3 -12 -1 -21 -7 -10 -8 -9 -4 3 10 23 26 23 26 23 7z m155 0 c2 3 5 -2 5
-10 0 -19 0 -19 -23 7 -12 14 -13 18 -3 10 9 -6 18 -10 21 -7z m218 0 c0 -1
-6 -7 -13 -13 -10 -8 -13 -6 -13 7 0 11 6 17 13 14 7 -3 13 -6 13 -8z m149 1
c9 -10 8 -15 -2 -19 -8 -3 -13 3 -13 14 0 23 0 23 15 5z m441 10 c0 -2 -8 -10
-17 -17 -16 -13 -17 -12 -4 4 13 16 21 21 21 13z m54 -25 c-2 -3 -12 3 -22 13
-16 17 -16 18 5 5 12 -7 20 -15 17 -18z m499 14 c-3 -9 -8 -14 -10 -11 -3 3
-2 9 2 15 9 16 15 13 8 -4z m-1216 -19 c18 -21 18 -21 -3 -3 -11 9 -23 14 -26
11 -3 -3 -8 -1 -12 4 -11 18 25 8 41 -12z m323 -1 c14 -19 14 -19 -2 -6 -10 7
-18 18 -18 24 0 6 1 8 3 6 1 -2 9 -13 17 -24z m37 5 c1 -11 -2 -20 -5 -20 -4
0 -8 9 -9 20 -1 11 2 20 5 20 4 0 8 -9 9 -20z m140 3 c0 -9 -4 -10 -14 -2 -7
6 -13 12 -13 14 0 1 6 2 13 2 8 0 14 -6 14 -14z m383 -8 c14 -19 14 -19 -2 -6
-10 7 -18 18 -18 24 0 6 1 8 3 6 1 -2 9 -13 17 -24z m70 20 c0 -2 -6 -8 -13
-14 -10 -8 -14 -7 -14 2 0 8 6 14 14 14 7 0 13 -1 13 -2z m61 -18 c-10 -9 -11
-8 -5 6 3 10 9 15 12 12 3 -3 0 -11 -7 -18z m-1251 -1 c0 -2 -7 -7 -16 -10 -8
-3 -12 -2 -9 4 6 10 25 14 25 6z m35 -4 c-3 -3 3 -15 12 -26 14 -15 14 -18 2
-8 -9 6 -20 8 -25 4 -5 -4 -6 -3 -2 2 4 5 3 14 -2 21 -7 8 -5 12 5 12 8 0 13
-3 10 -5z m36 -9 c13 -16 12 -17 -3 -4 -17 13 -22 21 -14 21 2 0 10 -8 17 -17z
m259 13 c0 -2 -8 -10 -17 -17 -16 -13 -17 -12 -4 4 13 16 21 21 21 13z m160 0
c0 -2 -8 -10 -17 -17 -16 -13 -17 -12 -4 4 13 16 21 21 21 13z m26 -20 c1 -7
-4 -13 -12 -13 -9 0 -11 4 -4 12 5 7 8 15 5 18 -3 4 -2 5 2 2 4 -3 8 -11 9
-19z m216 0 c3 3 8 1 12 -4 11 -18 -25 -8 -41 12 -18 21 -18 21 3 3 11 -9 23
-14 26 -11z m192 16 c3 -5 -1 -9 -9 -9 -8 0 -15 4 -15 9 0 4 4 8 9 8 6 0 12
-4 15 -8z m276 -7 c-6 -8 -9 -19 -6 -24 4 -5 3 -12 -2 -15 -12 -7 -11 26 1 42
5 6 12 12 14 12 3 0 0 -7 -7 -15z m204 7 c3 -5 -1 -9 -9 -9 -8 0 -12 4 -9 9 3
4 7 8 9 8 2 0 6 -4 9 -8z m-1471 -17 c-3 -9 -8 -14 -10 -11 -3 3 -2 9 2 15 9
16 15 13 8 -4z m288 -2 c13 -16 12 -17 -3 -4 -17 13 -22 21 -14 21 2 0 10 -8
17 -17z m157 -8 c-3 -3 -9 2 -12 12 -6 14 -5 15 5 6 7 -7 10 -15 7 -18z m275
10 c-3 -9 -8 -14 -10 -11 -3 3 -2 9 2 15 9 16 15 13 8 -4z m122 6 c3 -5 2 -12
-3 -15 -5 -3 -9 1 -9 9 0 17 3 19 12 6z m320 0 c3 -5 2 -12 -3 -15 -5 -3 -9 1
-9 9 0 17 3 19 12 6z m377 -6 c3 0 9 -3 13 -7 4 -3 0 -5 -9 -4 -9 1 -22 8 -29
16 -10 10 -9 11 3 4 8 -5 18 -9 22 -9z m-2042 -15 c-6 -11 -12 -20 -14 -20 -2
0 -2 9 1 20 3 11 9 20 15 20 5 0 4 -9 -2 -20z m864 4 c3 -8 2 -12 -4 -9 -6 3
-10 10 -10 16 0 14 7 11 14 -7z m526 6 c0 -5 -2 -10 -4 -10 -3 0 -8 5 -11 10
-3 6 -1 10 4 10 6 0 11 -4 11 -10z m526 -18 c-17 -16 -18 -16 -5 5 7 12 15 20
18 17 3 -2 -3 -12 -13 -22z m-469 3 c0 -8 -4 -12 -9 -9 -5 3 -6 10 -3 15 9 13
12 11 12 -6z m78 6 c3 -5 2 -12 -3 -15 -5 -3 -9 1 -9 9 0 17 3 19 12 6z m486
-8 c13 -16 12 -17 -3 -4 -17 13 -22 21 -14 21 2 0 10 -8 17 -17z m-1241 1 c0
-8 -19 -13 -24 -6 -3 5 1 9 9 9 8 0 15 -2 15 -3z m250 0 c0 -8 -19 -13 -24 -6
-3 5 1 9 9 9 8 0 15 -2 15 -3z m160 0 c0 -8 -19 -13 -24 -6 -3 5 1 9 9 9 8 0
15 -2 15 -3z m80 0 c0 -8 -19 -13 -24 -6 -3 5 1 9 9 9 8 0 15 -2 15 -3z m-734
-16 c5 4 6 3 2 -2 -4 -5 -3 -14 2 -21 7 -8 5 -12 -5 -12 -8 0 -13 3 -10 5 3 3
-3 15 -12 26 -14 15 -14 18 -2 8 9 -6 20 -8 25 -4z m65 -5 c13 -16 12 -17 -3
-4 -17 13 -22 21 -14 21 2 0 10 -8 17 -17z m199 13 c0 -2 -8 -10 -17 -17 -16
-13 -17 -12 -4 4 13 16 21 21 21 13z m41 -13 c13 -16 12 -17 -3 -4 -17 13 -22
21 -14 21 2 0 10 -8 17 -17z m119 13 c0 -2 -8 -10 -17 -17 -16 -13 -17 -12 -4
4 13 16 21 21 21 13z m41 -13 c13 -16 12 -17 -3 -4 -17 13 -22 21 -14 21 2 0
10 -8 17 -17z m119 13 c0 -2 -8 -10 -17 -17 -16 -13 -17 -12 -4 4 13 16 21 21
21 13z m41 -13 c13 -16 12 -17 -3 -4 -17 13 -22 21 -14 21 2 0 10 -8 17 -17z
m80 0 c13 -16 12 -17 -3 -4 -17 13 -22 21 -14 21 2 0 10 -8 17 -17z m77 -8
c-3 -3 -9 2 -12 12 -6 14 -5 15 5 6 7 -7 10 -15 7 -18z m642 21 c0 -2 -8 -10
-17 -17 -16 -13 -17 -12 -4 4 13 16 21 21 21 13z m39 -9 c8 -10 7 -14 -2 -14
-8 0 -14 6 -14 14 0 7 1 13 2 13 2 0 8 -6 14 -13z m-2029 -2 c0 -2 -6 -8 -13
-14 -10 -8 -14 -7 -14 2 0 8 6 14 14 14 7 0 13 -1 13 -2z m450 1 c0 -2 -7 -7
-16 -10 -8 -3 -12 -2 -9 4 6 10 25 14 25 6z m153 -14 c15 -16 15 -19 2 -19 -8
0 -13 3 -10 5 3 3 0 11 -6 19 -17 20 -5 16 14 -5z m83 2 c-1 -8 -6 -17 -12
-21 -5 -4 -6 -4 -2 1 4 5 3 14 -2 21 -7 8 -5 12 4 12 8 0 13 -6 12 -13z m95
-1 c13 -16 12 -17 -3 -4 -17 13 -22 21 -14 21 2 0 10 -8 17 -17z m148 14 c-2
-1 -13 -9 -24 -17 -19 -14 -19 -14 -6 3 7 9 18 17 24 17 6 0 8 -1 6 -3z m172
-14 c13 -17 13 -17 -6 -3 -11 8 -22 16 -24 17 -2 2 0 3 6 3 6 0 17 -8 24 -17z
m139 13 c0 -2 -8 -10 -17 -17 -16 -13 -17 -12 -4 4 13 16 21 21 21 13z m85 -5
c3 -5 2 -12 -3 -15 -5 -3 -9 1 -9 9 0 17 3 19 12 6z m-1394 -18 c13 -16 12
-17 -3 -4 -10 7 -18 15 -18 17 0 8 8 3 21 -13z m454 8 c3 -5 2 -12 -3 -15 -5
-3 -9 1 -9 9 0 17 3 19 12 6z m345 5 c0 -2 -8 -10 -17 -17 -16 -13 -17 -12 -4
4 13 16 21 21 21 13z m117 -9 c0 -8 -6 -14 -14 -14 -9 0 -10 4 -2 14 6 7 12
13 14 13 1 0 2 -6 2 -13z m161 0 c8 -10 6 -13 -7 -13 -11 0 -17 6 -14 13 3 7
6 13 8 13 1 0 7 -6 13 -13z m161 0 c8 -10 7 -14 -2 -14 -8 0 -14 6 -14 14 0 7
1 13 2 13 2 0 8 -6 14 -13z m-1154 -7 c-3 -5 -12 -10 -18 -10 -7 0 -6 4 3 10
19 12 23 12 15 0z m1920 0 c-3 -5 -12 -10 -18 -10 -7 0 -6 4 3 10 19 12 23 12
15 0z m-1205 -20 c0 -5 -5 -10 -11 -10 -5 0 -7 5 -4 10 3 6 8 10 11 10 2 0 4
-4 4 -10z m231 -7 c13 -17 13 -17 -6 -3 -11 8 -22 16 -24 17 -2 2 0 3 6 3 6 0
17 -8 24 -17z m153 6 c3 -3 -6 -5 -19 -5 -14 0 -25 4 -25 8 0 8 36 6 44 -3z
m146 5 c0 -8 -19 -13 -24 -6 -3 5 1 9 9 9 8 0 15 -2 15 -3z m174 -2 c3 -5 -1
-9 -9 -9 -8 0 -12 4 -9 9 3 4 7 8 9 8 2 0 6 -4 9 -8z m216 0 c0 -5 -7 -9 -15
-9 -8 0 -12 4 -9 9 3 4 9 8 15 8 5 0 9 -4 9 -8z m-81 -15 c8 -10 7 -14 -2 -14
-8 0 -14 6 -14 14 0 7 1 13 2 13 2 0 8 -6 14 -13z m-1069 -2 c0 -2 -6 -8 -13
-14 -10 -8 -14 -7 -14 2 0 8 6 14 14 14 7 0 13 -1 13 -2z m120 0 c0 -1 -10
-10 -22 -21 -14 -12 -18 -13 -10 -3 6 9 10 18 7 21 -3 2 2 5 10 5 8 0 15 -1
15 -2z m61 -12 c13 -16 12 -17 -3 -4 -17 13 -22 21 -14 21 2 0 10 -8 17 -17z
m209 3 c-7 -7 -13 -7 -20 0 -6 6 -3 10 10 10 13 0 16 -4 10 -10z m32 -12 c-9
-12 -19 -20 -21 -18 -2 2 1 10 7 17 7 8 10 16 7 19 -3 2 1 5 9 5 12 0 11 -5
-2 -23z m90 19 c-6 -3 -9 -10 -5 -16 4 -7 -1 -6 -10 2 -21 17 -21 17 6 18 12
0 16 -1 9 -4z m716 -13 c-7 -10 -14 -17 -17 -15 -4 4 18 35 25 35 2 0 -1 -9
-8 -20z m78 -2 l19 -23 -25 20 c-14 11 -27 21 -29 22 -2 2 0 3 6 3 5 0 18 -10
29 -22z m48 14 c2 -4 -4 -8 -14 -8 -10 0 -16 4 -14 8 3 4 9 8 14 8 5 0 11 -4
14 -8z m-1993 -16 c-11 -13 -74 -16 -87 -4 -3 4 13 5 35 3 23 -2 43 1 47 6 3
5 8 9 11 9 3 0 0 -6 -6 -14z m665 -12 c1 -9 0 -13 -4 -10 -3 4 -7 14 -8 22 -1
9 0 13 4 10 3 -4 7 -14 8 -22z m220 6 c0 -12 -4 -16 -9 -11 -5 5 -6 14 -3 20
10 15 12 14 12 -9z m44 16 c0 -2 -8 -10 -17 -17 -16 -13 -17 -12 -4 4 13 16
21 21 21 13z m281 -13 c13 -16 12 -17 -3 -4 -17 13 -22 21 -14 21 2 0 10 -8
17 -17z m320 0 c13 -16 12 -17 -3 -4 -17 13 -22 21 -14 21 2 0 10 -8 17 -17z
m33 -13 c-6 -6 -10 -3 -10 10 0 13 4 16 10 10 7 -7 7 -13 0 -20z m196 15 c-7
-8 -17 -15 -23 -15 -6 0 -2 7 9 15 25 19 30 19 14 0z m-1659 -12 c13 -17 13
-17 -6 -3 -11 8 -22 16 -24 17 -2 2 0 3 6 3 6 0 17 -8 24 -17z m688 14 c-2 -1
-13 -9 -24 -17 -19 -14 -19 -14 -6 3 7 9 18 17 24 17 6 0 8 -1 6 -3z m52 -20
c-10 -9 -11 -8 -5 6 3 10 9 15 12 12 3 -3 0 -11 -7 -18z m280 6 c13 -16 12
-17 -3 -4 -17 13 -22 21 -14 21 2 0 10 -8 17 -17z m59 13 c0 -2 -8 -10 -17
-17 -16 -13 -17 -12 -4 4 13 16 21 21 21 13z m262 -14 c12 -15 11 -16 -4 -3
-13 10 -21 11 -31 2 -10 -8 -14 -7 -14 2 0 19 34 18 49 -1z m464 -18 c3 -16 2
-26 -1 -23 -3 4 -8 19 -11 35 -3 16 -2 26 1 23 3 -4 8 -19 11 -35z m125 23
c-6 -8 -7 -18 -3 -22 4 -5 1 -5 -6 -1 -10 6 -10 11 -1 22 6 8 14 14 16 14 3 0
0 -6 -6 -13z m65 0 c4 -3 -4 -4 -16 -2 -12 2 -25 7 -28 10 -3 3 4 4 16 2 12
-2 24 -6 28 -10z m84 8 c0 -2 -6 -8 -13 -14 -10 -8 -14 -7 -14 2 0 8 6 14 14
14 7 0 13 -1 13 -2z m50 -15 c-6 -11 -13 -20 -16 -20 -2 0 0 9 6 20 6 11 13
20 16 20 2 0 0 -9 -6 -20z m-2323 -22 c4 -28 -6 -18 -12 12 -2 12 -1 20 2 16
4 -4 8 -16 10 -28z m126 19 c3 -7 -3 -13 -14 -13 -13 0 -15 3 -7 13 6 7 12 13
13 13 2 0 5 -6 8 -13z m670 -2 c-3 -9 -8 -14 -10 -11 -3 3 -2 9 2 15 9 16 15
13 8 -4z m1086 2 c8 -10 7 -14 -2 -14 -8 0 -14 6 -14 14 0 7 1 13 2 13 2 0 8
-6 14 -13z m-1714 -7 c-3 -5 -12 -10 -18 -10 -7 0 -6 4 3 10 19 12 23 12 15 0z
m1441 -2 c3 -4 -1 -5 -10 -4 -8 1 -18 5 -22 8 -3 4 1 5 10 4 8 -1 18 -5 22 -8z
m675 -1 c-6 -8 -7 -18 -3 -22 4 -5 1 -5 -6 -1 -10 6 -10 11 -1 22 6 8 14 14
16 14 3 0 0 -6 -6 -13z m-1468 -12 c-3 -9 -8 -14 -10 -11 -3 3 -2 9 2 15 9 16
15 13 8 -4z m182 5 c-4 -6 -1 -19 6 -28 12 -16 12 -16 -5 0 -16 14 -15 38 0
38 3 0 2 -5 -1 -10z m118 -3 c4 3 7 1 7 -5 0 -17 -16 -15 -31 6 -12 15 -12 16
2 5 9 -7 19 -10 22 -6z m822 4 c3 -5 2 -12 -3 -15 -5 -3 -9 1 -9 9 0 17 3 19
12 6z m-1255 -11 c0 -5 -2 -10 -4 -10 -3 0 -8 5 -11 10 -3 6 -1 10 4 10 6 0
11 -4 11 -10z m477 -7 c0 -9 -4 -10 -14 -2 -7 6 -13 12 -13 14 0 1 6 2 13 2 8
0 14 -6 14 -14z m614 0 c12 -16 12 -17 -2 -6 -9 7 -19 10 -22 6 -4 -3 -7 -1
-7 5 0 17 16 15 31 -5z m483 1 c3 -8 2 -12 -4 -9 -6 3 -10 10 -10 16 0 14 7
11 14 -7z m-1413 -11 c13 -16 12 -17 -3 -4 -17 13 -22 21 -14 21 2 0 10 -8 17
-17z m356 4 c0 -8 -6 -14 -14 -14 -9 0 -10 4 -2 14 6 7 12 13 14 13 1 0 2 -6
2 -13z m763 9 c0 -2 -8 -10 -17 -17 -16 -13 -17 -12 -4 4 13 16 21 21 21 13z
m201 -13 c13 -16 12 -17 -3 -4 -17 13 -22 21 -14 21 2 0 10 -8 17 -17z m-3048
-8 c-3 -9 -8 -14 -10 -11 -3 3 -2 9 2 15 9 16 15 13 8 -4z m972 6 c-9 -8 -36
-10 -30 -2 2 4 11 8 20 8 8 0 13 -3 10 -6z m30 0 c3 -5 2 -12 -3 -15 -5 -3 -9
1 -9 9 0 17 3 19 12 6z m1409 1 c2 -4 -4 -8 -14 -8 -10 0 -16 4 -14 8 3 4 9 8
14 8 5 0 11 -4 14 -8z m559 -4 c-4 -7 -8 -17 -8 -22 0 -5 -7 -11 -15 -13 -13
-4 -13 -3 0 6 8 6 11 11 6 11 -5 0 -3 7 4 15 15 18 24 20 13 3z m-2183 -2 c0
-2 -8 -10 -17 -17 -16 -13 -17 -12 -4 4 13 16 21 21 21 13z m128 -18 c10 -12
10 -18 1 -24 -7 -4 -9 -3 -5 4 3 6 2 13 -4 17 -5 3 -10 11 -10 17 0 6 1 9 3 7
1 -2 8 -11 15 -21z m848 -4 c1 -9 0 -13 -4 -10 -3 4 -7 14 -8 22 -1 9 0 13 4
10 3 -4 7 -14 8 -22z m110 4 c13 -16 14 -19 2 -10 -13 10 -17 10 -21 0 -3 -7
-4 -3 -4 10 1 12 2 22 3 22 0 0 9 -10 20 -22z m66 7 c3 0 9 -3 13 -7 4 -3 0
-5 -9 -4 -9 1 -22 8 -29 16 -10 10 -9 11 3 4 8 -5 18 -9 22 -9z m520 0 c2 3 5
-2 5 -10 0 -10 -4 -12 -12 -5 -7 5 -14 8 -17 5 -2 -3 -5 2 -5 10 0 10 4 12 12
5 7 -5 14 -8 17 -5z m121 0 c-3 -9 -8 -14 -10 -11 -3 3 -2 9 2 15 9 16 15 13
8 -4z m58 -3 c-7 -2 -18 1 -23 6 -8 8 -4 9 13 5 13 -4 18 -8 10 -11z m137 9
c16 12 16 12 0 -6 -18 -19 -18 -19 -35 0 -17 18 -17 18 0 6 14 -11 20 -11 35
0z m88 -10 c0 -11 -5 -17 -13 -14 -10 4 -11 9 -2 19 15 18 15 18 15 -5z m245
-23 c-11 -11 -13 -10 -7 0 4 7 2 21 -5 30 -12 15 -11 15 6 0 16 -15 17 -20 6
-30z m-2367 16 c3 -8 2 -12 -4 -9 -6 3 -10 10 -10 16 0 14 7 11 14 -7z m1386
2 c-7 -7 -13 -7 -20 0 -6 6 -3 10 10 10 13 0 16 -4 10 -10z m80 10 c0 -2 -7
-7 -16 -10 -8 -3 -12 -2 -9 4 6 10 25 14 25 6z m90 -2 c0 -8 -19 -13 -24 -6
-3 5 1 9 9 9 8 0 15 -2 15 -3z m621 -11 c12 -16 12 -17 -2 -6 -9 7 -20 9 -24
5 -5 -4 -5 -1 -1 6 9 16 11 15 27 -5z m220 -6 c-10 -9 -11 -8 -5 6 3 10 9 15
12 12 3 -3 0 -11 -7 -18z m-2156 3 c3 -6 -1 -7 -9 -4 -18 7 -21 14 -7 14 6 0
13 -4 16 -10z m1622 -3 c0 -8 -6 -14 -14 -14 -9 0 -10 4 -2 14 6 7 12 13 14
13 1 0 2 -6 2 -13z m480 0 c0 -8 -6 -14 -14 -14 -9 0 -10 4 -2 14 6 7 12 13
14 13 1 0 2 -6 2 -13z m-2366 -14 c12 -16 12 -17 -2 -6 -9 7 -20 9 -24 5 -5
-4 -5 -1 -1 6 9 16 11 15 27 -5z m174 7 c3 -6 -1 -7 -9 -4 -18 7 -21 14 -7 14
6 0 13 -4 16 -10z m1350 2 c-3 -3 3 -15 12 -26 14 -15 14 -18 2 -8 -9 6 -20 8
-25 4 -5 -4 -6 -3 -2 2 4 5 3 14 -2 21 -7 8 -5 12 5 12 8 0 13 -3 10 -5z m409
0 c2 -4 -4 -8 -14 -8 -10 0 -16 4 -14 8 3 4 9 8 14 8 5 0 11 -4 14 -8z m156 4
c0 -2 -7 -7 -16 -10 -8 -3 -12 -2 -9 4 6 10 25 14 25 6z m31 -13 c13 -16 12
-17 -3 -4 -10 7 -18 15 -18 17 0 8 8 3 21 -13z m204 -1 c-3 -3 -11 0 -18 7 -9
10 -8 11 6 5 10 -3 15 -9 12 -12z m145 14 c0 -3 -4 -8 -10 -11 -5 -3 -10 -1
-10 4 0 6 5 11 10 11 6 0 10 -2 10 -4z m-1499 -23 c13 -16 12 -17 -3 -4 -17
13 -22 21 -14 21 2 0 10 -8 17 -17z m497 -8 c-3 -3 -9 2 -12 12 -6 14 -5 15 5
6 7 -7 10 -15 7 -18z m200 0 c-3 -3 -9 2 -12 12 -6 14 -5 15 5 6 7 -7 10 -15
7 -18z m40 0 c-3 -3 -9 2 -12 12 -6 14 -5 15 5 6 7 -7 10 -15 7 -18z m476 -5
c-6 -6 -10 -3 -10 10 0 13 4 16 10 10 7 -7 7 -13 0 -20z m82 10 c0 -12 -4 -16
-9 -11 -5 5 -6 14 -3 20 10 15 12 14 12 -9z m-2104 -10 c11 -12 10 -12 -2 -3
-8 6 -23 9 -32 8 -10 -2 -20 0 -23 4 -8 14 44 6 57 -9z m98 15 c0 -2 -6 -8
-13 -14 -10 -8 -14 -7 -14 2 0 8 6 14 14 14 7 0 13 -1 13 -2z m887 -10 c0 -8
-4 -12 -9 -9 -5 3 -6 10 -3 15 9 13 12 11 12 -6z m157 -1 c3 -8 2 -12 -4 -9
-6 3 -10 10 -10 16 0 14 7 11 14 -7z m440 8 c3 -5 -1 -9 -9 -9 -8 0 -12 4 -9
9 3 4 7 8 9 8 2 0 6 -4 9 -8z m261 -2 c3 -5 1 -10 -4 -10 -6 0 -11 5 -11 10 0
6 2 10 4 10 3 0 8 -4 11 -10z m227 -22 c-8 -8 -9 -4 -5 13 4 13 8 18 11 10 2
-7 -1 -18 -6 -23z m-866 -4 c1 -9 0 -13 -4 -10 -3 4 -7 14 -8 22 -1 9 0 13 4
10 3 -4 7 -14 8 -22z m964 22 c0 -2 -8 -10 -17 -17 -16 -13 -17 -12 -4 4 13
16 21 21 21 13z m-2382 -18 c-2 -7 2 -12 8 -11 6 1 11 -5 11 -12 0 -10 -4 -12
-12 -5 -7 5 -14 7 -18 4 -4 -5 -3 16 2 34 3 9 11 0 9 -10z m265 -5 c-4 -10 -9
-11 -19 -2 -18 15 -18 15 5 15 11 0 17 -5 14 -13z m1196 -17 c-3 -3 -11 5 -18
17 -13 21 -12 21 5 5 10 -10 16 -20 13 -22z m438 17 c0 -9 -4 -10 -14 -2 -7 6
-13 12 -13 14 0 1 6 2 13 2 8 0 14 -6 14 -14z m40 0 c0 -9 -4 -10 -14 -2 -7 6
-13 12 -13 14 0 1 6 2 13 2 8 0 14 -6 14 -14z m18 -21 c-17 -15 -18 -15 -6 0
7 9 9 23 5 30 -6 10 -4 11 7 0 11 -10 10 -15 -6 -30z m460 30 c-3 -3 0 -11 6
-19 17 -20 5 -16 -14 5 -15 16 -15 19 -2 19 8 0 13 -3 10 -5z m47 1 c-6 -3
-10 -9 -7 -13 3 -5 0 -12 -7 -16 -7 -4 -10 -4 -6 1 4 4 4 13 -2 19 -6 8 -2 12
13 13 12 0 16 -1 9 -4z m36 -24 c-3 -8 -7 -3 -11 10 -4 17 -3 21 5 13 5 -5 8
-16 6 -23z m-3241 6 c0 -8 -4 -15 -9 -15 -10 0 -11 14 -1 23 9 10 10 9 10 -8z
m877 -14 c-2 -3 -12 3 -22 13 -16 17 -16 18 5 5 12 -7 20 -15 17 -18z m1386
25 c0 -2 -8 -10 -17 -17 -16 -13 -17 -12 -4 4 13 16 21 21 21 13z m56 -8 c5 4
6 3 2 -2 -4 -5 -3 -14 2 -21 7 -8 5 -12 -5 -12 -8 0 -13 3 -10 5 3 3 -3 15
-12 26 -14 15 -14 18 -2 8 9 -6 20 -8 25 -4z m438 -17 c-2 -3 -12 3 -22 13
-16 17 -16 18 5 5 12 -7 20 -15 17 -18z m53 11 c-10 -10 -15 -21 -12 -24 3 -2
-2 -5 -10 -5 -12 0 -10 6 7 24 25 27 39 32 15 5z m54 1 c13 -16 12 -17 -3 -4
-17 13 -22 21 -14 21 2 0 10 -8 17 -17z m-1166 -2 c3 -5 2 -12 -3 -15 -5 -3
-9 1 -9 9 0 17 3 19 12 6z m346 -4 c-6 -8 -9 -16 -6 -19 3 -2 -2 -5 -10 -5
-13 0 -13 3 2 19 19 21 31 25 14 5z m95 1 c4 -7 4 -10 -1 -6 -4 4 -15 2 -24
-5 -14 -11 -14 -10 -2 6 16 20 18 21 27 5z m463 9 c-2 -1 -13 -9 -24 -17 -19
-14 -19 -14 -6 3 7 9 18 17 24 17 6 0 8 -1 6 -3z m321 -22 c14 -19 14 -19 -2
-6 -10 7 -18 18 -18 24 0 6 1 8 3 6 1 -2 9 -13 17 -24z m117 18 c-4 -3 -1 -13
6 -22 11 -14 10 -14 -5 -2 -16 12 -16 31 -1 31 4 0 3 -3 0 -7z m-2200 -16 c0
-8 -6 -14 -14 -14 -9 0 -10 4 -2 14 6 7 12 13 14 13 1 0 2 -6 2 -13z m1441 0
c8 -10 6 -13 -7 -13 -11 0 -17 6 -14 13 3 7 6 13 8 13 1 0 7 -6 13 -13z m560
0 c8 -10 6 -13 -7 -13 -11 0 -17 6 -14 13 3 7 6 13 8 13 1 0 7 -6 13 -13z
m119 -19 c2 -12 1 -19 -2 -16 -3 3 -8 16 -10 28 -2 12 -1 20 2 16 4 -4 8 -16
10 -28z m-2162 4 c-3 -3 -11 0 -18 7 -9 10 -8 11 6 5 10 -3 15 -9 12 -12z
m1025 14 c0 -3 -4 -8 -10 -11 -5 -3 -10 -1 -10 4 0 6 5 11 10 11 6 0 10 -2 10
-4z m40 -6 c0 -5 -2 -10 -4 -10 -3 0 -8 5 -11 10 -3 6 -1 10 4 10 6 0 11 -4
11 -10z m134 2 c3 -5 -1 -9 -9 -9 -8 0 -12 4 -9 9 3 4 7 8 9 8 2 0 6 -4 9 -8z
m91 -1 c-9 -8 -36 -10 -30 -2 2 4 11 8 20 8 8 0 13 -3 10 -6z m431 -17 c1 -9
0 -13 -3 -10 -4 3 -11 1 -18 -4 -8 -7 -12 -5 -12 5 0 7 5 13 11 12 6 -1 10 5
8 13 -2 8 0 11 4 7 4 -4 9 -15 10 -23z m369 16 c-3 -5 -12 -10 -18 -10 -7 0
-6 4 3 10 19 12 23 12 15 0z m233 -10 c-7 -10 -14 -17 -17 -15 -4 4 18 35 25
35 2 0 -1 -9 -8 -20z m-2380 -15 c-3 -3 -9 2 -12 12 -6 14 -5 15 5 6 7 -7 10
-15 7 -18z m137 15 c3 -6 -1 -7 -9 -4 -18 7 -21 14 -7 14 6 0 13 -4 16 -10z
m1341 -5 c-1 -8 -5 -17 -8 -21 -5 -4 -4 16 1 34 3 9 9 -1 7 -13z m517 0 c-3
-9 -8 -14 -10 -11 -3 3 -2 9 2 15 9 16 15 13 8 -4z m281 -15 c-6 -6 -10 -3
-10 10 0 13 4 16 10 10 7 -7 7 -13 0 -20z m-629 11 c-9 -8 -36 -10 -30 -2 2 4
11 8 20 8 8 0 13 -3 10 -6z m215 -1 c0 -5 -4 -10 -10 -10 -5 0 -10 5 -10 10 0
6 5 10 10 10 6 0 10 -4 10 -10z m70 6 c0 -2 -8 -10 -17 -17 -16 -13 -17 -12
-4 4 13 16 21 21 21 13z m-129 -29 c-10 -9 -11 -8 -5 6 3 10 9 15 12 12 3 -3
0 -11 -7 -18z m379 19 c0 -2 -8 -10 -17 -17 -16 -13 -17 -12 -4 4 13 16 21 21
21 13z m-1045 -15 c-9 -8 -36 -10 -30 -2 2 4 11 8 20 8 8 0 13 -3 10 -6z
m1166 -4 c-6 -8 -7 -18 -3 -22 4 -5 1 -5 -6 -1 -10 6 -10 11 -1 22 6 8 14 14
16 14 3 0 0 -6 -6 -13z m-2302 -10 c8 -10 7 -14 -2 -14 -8 0 -14 6 -14 14 0 7
1 13 2 13 2 0 8 -6 14 -13z m1338 -2 c0 -8 -4 -12 -9 -9 -5 3 -6 10 -3 15 9
13 12 11 12 -6z m207 -6 c-10 -12 -18 -24 -17 -28 1 -3 0 -8 -2 -9 -2 -2 -3 3
-1 11 2 16 25 47 34 47 3 0 -3 -9 -14 -21z m81 1 c-10 -11 -14 -20 -10 -20 4
0 1 -8 -8 -18 -10 -10 -14 -22 -10 -27 5 -4 2 -5 -5 -1 -11 6 -10 12 4 27 9
10 13 19 9 19 -4 0 0 9 10 20 10 11 20 20 23 20 3 0 -3 -9 -13 -20z m155 17
c0 -2 -9 -12 -20 -22 -24 -21 -27 -14 -4 9 15 15 24 20 24 13z m90 -12 c-7 -8
-17 -15 -23 -15 -6 0 -2 7 9 15 25 19 30 19 14 0z m129 2 c8 -10 7 -14 -2 -14
-8 0 -14 6 -14 14 0 7 1 13 2 13 2 0 8 -6 14 -13z m95 -16 c-2 -3 -12 3 -22
13 -16 17 -16 18 5 5 12 -7 20 -15 17 -18z m-1034 15 c0 -3 -4 -8 -10 -11 -5
-3 -10 -1 -10 4 0 6 5 11 10 11 6 0 10 -2 10 -4z m180 0 c0 -3 -4 -8 -10 -11
-5 -3 -10 -1 -10 4 0 6 5 11 10 11 6 0 10 -2 10 -4z m957 -13 c0 -9 -4 -10
-14 -2 -7 6 -13 12 -13 14 0 1 6 2 13 2 8 0 14 -6 14 -14z m203 9 c0 -5 -7 -9
-15 -9 -8 0 -12 4 -9 9 3 4 9 8 15 8 5 0 9 -4 9 -8z m-260 -6 c0 -2 -8 -10
-17 -17 -16 -13 -17 -12 -4 4 13 16 21 21 21 13z m-2220 -41 c0 -5 -5 -3 -10
5 -5 8 -10 20 -10 25 0 6 5 3 10 -5 5 -8 10 -19 10 -25z m25 25 c3 -6 -1 -7
-9 -4 -18 7 -21 14 -7 14 6 0 13 -4 16 -10z m1555 -4 c-7 -7 -13 -7 -20 0 -6
6 -3 10 10 10 13 0 16 -4 10 -10z m85 5 c-9 -8 -36 -10 -30 -2 2 4 11 8 20 8
8 0 13 -3 10 -6z m196 -4 c-6 -8 -8 -16 -5 -19 3 -3 1 -9 -4 -12 -6 -3 -9 0
-8 6 2 16 15 38 23 38 3 0 0 -6 -6 -13z m44 3 c3 -6 -1 -7 -9 -4 -18 7 -21 14
-7 14 6 0 13 -4 16 -10z m85 4 c0 -8 -19 -13 -24 -6 -3 5 1 9 9 9 8 0 15 -2
15 -3z m35 -4 c3 -6 -1 -7 -9 -4 -18 7 -21 14 -7 14 6 0 13 -4 16 -10z m85 6
c0 -2 -8 -10 -17 -17 -16 -13 -17 -12 -4 4 13 16 21 21 21 13z m258 -21 c-3
-3 -9 2 -12 12 -6 14 -5 15 5 6 7 -7 10 -15 7 -18z m-592 -36 c0 -21 -2 -37
-4 -34 -3 3 -6 23 -7 45 -1 22 1 37 4 34 3 -3 6 -23 7 -45z m374 36 c-14 -17
-30 -20 -30 -4 0 5 4 8 9 4 5 -3 12 -1 16 5 3 5 9 10 12 10 3 0 0 -7 -7 -15z
m122 0 c19 0 14 -11 -6 -11 -12 0 -23 6 -23 13 0 6 5 9 11 5 6 -4 14 -7 18 -7z
m44 -11 c1 -9 0 -13 -4 -10 -3 4 -7 14 -8 22 -1 9 0 13 4 10 3 -4 7 -14 8 -22z
m80 6 c0 -12 -4 -16 -9 -11 -5 5 -6 14 -3 20 10 15 12 14 12 -9z m-421 -8 c-3
-3 -11 0 -18 7 -9 10 -8 11 6 5 10 -3 15 -9 12 -12z m39 10 c3 -5 -1 -9 -9 -9
-8 0 -12 4 -9 9 3 4 7 8 9 8 2 0 6 -4 9 -8z m-277 -17 c0 -8 -4 -12 -9 -9 -5
3 -6 10 -3 15 9 13 12 11 12 -6z m204 -2 c13 -16 12 -17 -3 -4 -17 13 -22 21
-14 21 2 0 10 -8 17 -17z m-1971 -3 c8 -5 11 -10 5 -10 -5 0 -17 5 -25 10 -8
5 -10 10 -5 10 6 0 17 -5 25 -10z m1841 -7 c13 -16 12 -17 -3 -4 -17 13 -22
21 -14 21 2 0 10 -8 17 -17z m66 -8 c0 -8 -3 -13 -5 -10 -3 3 -12 -1 -21 -7
-10 -8 -9 -4 3 10 23 26 23 26 23 7z m44 1 c14 8 11 -2 -4 -14 -10 -8 -13 -6
-14 11 0 12 1 16 4 9 3 -6 9 -10 14 -6z m69 0 c-7 -7 -13 -7 -20 0 -6 6 -3 10
10 10 13 0 16 -4 10 -10z m272 -9 c-7 -8 -10 -16 -7 -19 3 -2 -1 -5 -9 -5 -12
0 -11 5 2 23 9 12 19 20 21 18 2 -2 -1 -10 -7 -17z m175 8 c0 -8 -3 -13 -5
-10 -3 3 -12 -1 -21 -7 -10 -8 -9 -4 3 10 23 26 23 26 23 7z m-418 -18 c8 -10
7 -14 -2 -14 -8 0 -14 6 -14 14 0 7 1 13 2 13 2 0 8 -6 14 -13z m-69 -1 c0 -2
-8 -10 -17 -17 -16 -13 -17 -12 -4 4 13 16 21 21 21 13z m35 -6 c3 -6 -1 -7
-9 -4 -18 7 -21 14 -7 14 6 0 13 -4 16 -10z m80 0 c-3 -5 -12 -10 -18 -10 -7
0 -6 4 3 10 19 12 23 12 15 0z m40 0 c3 -6 -1 -7 -9 -4 -18 7 -21 14 -7 14 6
0 13 -4 16 -10z m108 -8 c15 -16 15 -19 2 -19 -8 0 -13 3 -10 5 3 3 0 11 -6
19 -17 20 -5 16 14 -5z m87 14 c0 -2 -7 -7 -16 -10 -8 -3 -12 -2 -9 4 6 10 25
14 25 6z m-427 -21 c-3 -9 -8 -14 -10 -11 -3 3 -2 9 2 15 9 16 15 13 8 -4z
m281 -15 c-6 -6 -10 -3 -10 10 0 13 4 16 10 10 7 -7 7 -13 0 -20z m282 10 c0
-12 -4 -16 -9 -11 -5 5 -6 14 -3 20 10 15 12 14 12 -9z m-522 -6 c3 -8 2 -12
-4 -9 -6 3 -10 10 -10 16 0 14 7 11 14 -7z m180 7 c3 -5 -2 -15 -12 -22 -15
-12 -16 -12 -5 2 7 9 10 19 6 22 -3 4 -4 7 0 7 3 0 8 -4 11 -9z m89 -11 c3
-11 1 -18 -4 -14 -5 3 -9 12 -9 20 0 20 7 17 13 -6z m-127 -15 c0 -13 -2 -22
-5 -20 -2 3 -11 -1 -20 -7 -10 -8 -9 -4 3 10 11 12 16 22 12 22 -4 0 -4 5 -1
10 9 15 11 12 11 -15z m-236 0 c0 -2 -9 -3 -19 -2 -11 0 -18 5 -15 9 4 6 34 0
34 -7z m170 10 c0 -7 -30 -13 -34 -7 -3 4 4 9 15 9 10 1 19 0 19 -2z m40 0 c0
-1 -10 -10 -22 -21 -14 -12 -18 -13 -10 -3 6 9 10 18 7 21 -3 2 2 5 10 5 8 0
15 -1 15 -2z m275 -5 c-4 -6 -1 -19 6 -28 12 -16 12 -16 -5 0 -16 14 -15 38 0
38 3 0 2 -5 -1 -10z m45 5 c0 -2 -6 -8 -13 -14 -10 -8 -14 -7 -14 2 0 8 6 14
14 14 7 0 13 -1 13 -2z m35 -5 c3 -6 -1 -7 -9 -4 -18 7 -21 14 -7 14 6 0 13
-4 16 -10z m-117 -9 c16 12 16 12 0 -6 -18 -19 -18 -19 -35 0 -17 18 -17 18 0
6 14 -11 20 -11 35 0z m-96 -12 c2 -2 1 -3 -1 -2 -2 2 -9 -2 -16 -7 -8 -7 -12
-5 -12 4 0 12 22 16 29 5z m-294 -24 c-3 -3 -9 2 -12 12 -6 14 -5 15 5 6 7 -7
10 -15 7 -18z m102 21 c0 -2 -8 -10 -17 -17 -16 -13 -17 -12 -4 4 13 16 21 21
21 13z m405 -16 c-3 -5 -12 -10 -18 -10 -7 0 -6 4 3 10 19 12 23 12 15 0z
m-268 -13 c0 -8 -6 -14 -14 -14 -9 0 -10 4 -2 14 6 7 12 13 14 13 1 0 2 -6 2
-13z m-37 -1 c0 -3 -4 -8 -10 -11 -5 -3 -10 -1 -10 4 0 6 5 11 10 11 6 0 10
-2 10 -4z m97 -15 c0 -11 -5 -18 -9 -15 -4 3 -5 11 -1 19 7 21 12 19 10 -4z
m137 11 c3 -5 -1 -9 -9 -9 -8 0 -12 4 -9 9 3 4 7 8 9 8 2 0 6 -4 9 -8z m41
-22 c3 -5 1 -10 -4 -10 -6 0 -11 5 -11 10 0 6 2 10 4 10 3 0 8 -4 11 -10z
m-390 -40 c3 -6 -1 -7 -9 -4 -18 7 -21 14 -7 14 6 0 13 -4 16 -10z m171 -6
c-1 -8 -6 -17 -12 -21 -5 -4 -6 -4 -2 1 4 5 3 14 -2 21 -7 8 -5 12 4 12 8 0
13 -6 12 -13z m-58 -19 c-3 -3 -9 2 -12 12 -6 14 -5 15 5 6 7 -7 10 -15 7 -18z
m153 -2 c11 -15 11 -16 -1 -6 -10 9 -18 9 -34 1 -19 -10 -20 -10 -7 5 17 21
25 21 42 0z m-154 -26 c0 -8 -6 -14 -14 -14 -9 0 -10 4 -2 14 6 7 12 13 14 13
1 0 2 -6 2 -13z m44 -4 c13 -16 12 -17 -3 -4 -17 13 -22 21 -14 21 2 0 10 -8
17 -17z m52 -8 c4 -8 3 -16 -1 -19 -4 -3 -9 4 -9 15 -2 23 3 25 10 4z m61 -1
c3 -8 2 -12 -4 -9 -6 3 -10 10 -10 16 0 14 7 11 14 -7z m-196 -19 c-3 -3 -9 2
-12 12 -6 14 -5 15 5 6 7 -7 10 -15 7 -18z m-403 -2203 c-3 -3 -11 0 -18 7 -9
10 -8 11 6 5 10 -3 15 -9 12 -12z m231 -24 c-10 -6 -22 -6 -26 -2 -5 5 3 10
18 11 22 1 24 0 8 -9z"/>
<path d="M4440 4425 c0 -5 5 -17 10 -25 5 -8 10 -10 10 -5 0 6 -5 17 -10 25
-5 8 -10 11 -10 5z"/>
<path d="M4520 4080 c0 -5 5 -10 11 -10 5 0 7 5 4 10 -3 6 -8 10 -11 10 -2 0
-4 -4 -4 -10z"/>
<path d="M1365 3960 c-3 -5 -1 -10 4 -10 6 0 11 5 11 10 0 6 -2 10 -4 10 -3 0
-8 -4 -11 -10z"/>
<path d="M1820 3570 c-8 -5 -12 -12 -9 -15 4 -3 12 1 19 10 14 17 11 19 -10 5z"/>
<path d="M4369 3478 c-4 -15 -6 -38 -3 -38 2 0 8 9 14 20 7 14 7 20 0 20 -5 0
-10 -1 -11 -2z"/>
<path d="M586 2607 c3 -10 9 -15 12 -12 3 3 0 11 -7 18 -10 9 -11 8 -5 -6z"/>
<path d="M4395 1869 c-4 -6 -5 -12 -2 -15 2 -3 7 2 10 11 7 17 1 20 -8 4z"/>
<path d="M1710 1159 c0 -5 5 -7 10 -4 6 3 10 8 10 11 0 2 -4 4 -10 4 -5 0 -10
-5 -10 -11z"/>
<path d="M1291 964 c0 -11 3 -14 6 -6 3 7 2 16 -1 19 -3 4 -6 -2 -5 -13z"/>
</g>
</svg>
